<svg viewBox="0 0 280 190.59905794016126" preserveAspectRatio="xMidYMid meet" class="css-g5ufxp" id="dehffggb"><defs id="SvgjsDefs1001"><linearGradient id="SvgjsLinearGradient1013"><stop id="SvgjsStop1014" stop-color="#2d388a" offset="0"></stop><stop id="SvgjsStop1015" stop-color="#00aeef" offset="1"></stop></linearGradient><linearGradient id="SvgjsLinearGradient1016"><stop id="SvgjsStop1017" stop-color="#2d388a" offset="0"></stop><stop id="SvgjsStop1018" stop-color="#00aeef" offset="1"></stop></linearGradient><linearGradient id="SvgjsLinearGradient1019"><stop id="SvgjsStop1020" stop-color="#2d388a" offset="0"></stop><stop id="SvgjsStop1021" stop-color="#00aeef" offset="1"></stop></linearGradient></defs><g id="SvgjsG1007" featurekey="symbolFeature-0" transform="matrix(1.2218631772768052,0,0,1.2218631772768052,76.63039710926145,-21.868905692656366)" fill="#fff"><g xmlns="http://www.w3.org/2000/svg"><path fill="none" d="M27.722,22.228c-1.856,0.951-3.599,2.092-5.193,3.41c1.414-0.594,2.814-1.193,2.944-1.291   C25.606,24.248,26.558,23.248,27.722,22.228z"></path><path d="M48.315,75.162c0.083-0.09,0.166-0.182,0.246-0.299c0.814-1.185,1.48-2.925,1.961-3.257   c0.481-0.333,0.851,0.556,0.813-0.409c-0.035-0.959-0.738-3.365-1.665-3.401c-0.925-0.039-1.85-1.406-2.073-1.851   c-0.222-0.444-1.517-2.998-1.887-2.294l-0.481,2.923c-0.148-0.037-1.74-0.741-1.629-1.11c0.111-0.371,0.026-0.666-0.005-0.815   c-0.032-0.148-1.253-1.307-1.772-0.617c-0.518,0.692-1.109,1.47-1.22,1.32c-0.11-0.147-1.406,0.149-1.48,0.26   c-0.074,0.111-1.776,1.775-1.776,1.775s-2.554,2.073-2.554,2.442c0,0.371,0.074,3.33,1.185,3.812c1.11,0.482,1.961-0.591,3.516,0   c1.555,0.593,4.699,0.443,5.218,0.963c0.511,0.512,1.595,0.877,1.837,0.993c-1.891,0.396-3.849,0.606-5.856,0.606   c-14.305,0-26.185-10.575-28.236-24.318c0.783,0.617,6.527,1.572,6.527,1.953c0,0.404,2.821,4.379,3.764,5.827   c0.943,1.447,1.077-0.338,1.077-0.338s0.268-2.133,0.503-3.076c0.236-0.941,2.154-2.051,3.063-2.354   c0.909-0.303,0.573,0.572,0.909,1.682c0.336,1.111,1.48,0.438,1.48,0.539c0,0.1-0.168,1.65-0.201,1.986   c-0.034,0.336,1.145,1.616,1.245,2.052c0.101,0.438-0.842-0.739-1.783-1.345c-0.943-0.606-0.438,4.104,5.316,5.485   c5.755,1.38,5.688-0.438,4.981-0.472c-0.706-0.033-5.89-0.773-6.26-1.178c-0.37-0.403-0.976-1.11-1.212-1.312   c-0.235-0.204,0-1.28-1.346-2.93c-1.346-1.649,1.818-0.368,2.423-0.57c0.605-0.203,0.875-1.684,0.572-2.087   c-0.303-0.405-1.313-1.279,1.245-1.819c2.559-0.538,3.298-3.533,3.265-3.969c-0.034-0.438-0.438-1.212-0.067-1.65   c0.37-0.438-0.034-0.673-0.673-0.706c-0.64-0.034-0.336-0.371,0.472-0.471c0.807-0.101,1.379,0.1,1.312,0.673   c-0.067,0.573-0.27,2.121,0.808,1.514c1.077-0.605,0.31-2.154,0.31-2.154s-1.05-1.008,1.71-1.816   c2.759-0.808,3.467-6.185,2.458-6.723c-1.009-0.539,1.242-1.556,2.186-1.69c0.942-0.135,2.625-1.347,2.692-0.607   c0.067,0.741,0.382,2.658,0.382,2.658s0.897,2.525,1.974,0.035c1.077-2.49,5.048-5.317,5.52-5.856s3.433-0.942,3.77-1.683   c0.335-0.741-5.856-3.298-6.582-3.029c-0.726,0.269-5.129-0.404-6.476-2.289c-1.347-1.884-3.837-1.077-3.702-0.067   c0.135,1.009-5.722-1.414-6.059-1.481c-0.336-0.067-3.298-2.288-3.23-3.029c0.044-0.49-0.656-1.149-1.696-1.466   c2.41-0.663,4.943-1.024,7.561-1.024c10.395,0,19.507,5.586,24.501,13.911c0.212-0.408,0.446-0.791,0.699-1.145   c-5.269-8.38-14.592-13.966-25.201-13.966c-16.405,0-29.752,13.347-29.752,29.752s13.347,29.752,29.752,29.752   c5.342,0,10.452-1.49,14.791-3.965c-0.339-0.786-0.124-1.125-0.078-1.375C54.032,72.774,50.406,74.582,48.315,75.162z    M27.722,22.228c-1.164,1.02-2.116,2.02-2.249,2.12c-0.13,0.098-1.53,0.697-2.944,1.291C24.123,24.32,25.866,23.179,27.722,22.228z   "></path><path d="M92.463,52.327l-20.085-5.753l0.375-7.572c0-2.13-1.729-7.556-3.857-7.556c-0.801,0-1.544,0.767-2.159,1.838   c-0.237,0.411-0.452,0.869-0.646,1.343c-0.647,1.576-1.047,3.354-1.047,4.375l0.375,7.72l-20.09,5.605   c-0.152,0.045-0.272,0.166-0.311,0.322c-0.039,0.155,0.009,0.319,0.126,0.429l3.877,3.686c0.083,0.075,0.195,0.119,0.307,0.119   c0.016,0,0.036,0,0.057-0.004c0.119-0.014,10.869-1.359,16.432-1.993l0.281,5.747l0.112,2.299l0.335,6.857l-9.384,2.837   c-0.15,0.045-0.265,0.169-0.301,0.323c-0.038,0.15,0.007,0.311,0.117,0.422l2.02,1.971c0.085,0.079,0.197,0.127,0.312,0.127   c0.034,0,0.066-0.01,0.102-0.015c0.058-0.015,5.145-1.201,7.924-1.631c0.387,1.011,0.911,1.875,1.562,1.875   c0.654,0,1.183-0.89,1.566-1.919c2.638,0.394,7.928,1.66,7.985,1.674c0.036,0.006,0.072,0.016,0.104,0.016   c0.118,0,0.232-0.049,0.317-0.134l1.949-1.968c0.108-0.114,0.153-0.272,0.113-0.422c-0.037-0.15-0.15-0.273-0.298-0.319   l-9.393-2.919l0.731-14.88c5.242,0.598,16.449,2.038,16.569,2.052c0.021,0.004,0.042,0.004,0.058,0.004   c0.117,0,0.229-0.045,0.314-0.128l3.74-3.681c0.112-0.111,0.158-0.276,0.118-0.428C92.733,52.492,92.614,52.371,92.463,52.327z"></path></g></g><g id="SvgjsG1008" featurekey="nameFeature-0" transform="matrix(2.10843344422764,0,0,2.10843344422764,15.771093262211451,69.55423843830911)" fill="#fff"><path d="M36.56 12.399999999999999 l0.12 0.16 c0 0.4 -1.24 0.8 -1.56 1.12 c-0.52 0.64 -1.2 0.4 -1.96 0.8 c-0.08 0 -0.12 -0.2 -0.12 -0.32 c0.68 -0.48 1.2 -1.12 1.68 -1.8 c-0.04 -0.12 -0.12 -0.12 -0.24 -0.12 c-0.32 0.24 -0.76 0.32 -1.2 0.32 c-0.28 0 -1.52 -0.12 -1.52 -0.4 c0 -0.12 0.08 -0.28 0.08 -0.4 l-0.08 -0.16 c-0.36 0 -0.6 0.2 -0.88 0.2 c-0.08 0 -0.12 -0.04 -0.16 -0.04 c-0.12 0.08 -0.4 0.04 -0.4 0.16 c0.04 0.08 0.12 0.16 0.2 0.16 c0.2 0 0.4 -0.16 0.64 -0.16 c0.12 0 0.2 0 0.2 0.2 c-0.12 0.16 -0.48 0.52 -0.68 0.52 l-0.28 -0.12 c-0.12 0 -0.2 0.04 -0.32 0.08 l-0.2 -0.12 c0.12 -0.08 0.16 -0.36 0.16 -0.48 c0 -0.24 -0.08 -0.12 -0.2 -0.24 c-0.28 0.24 -0.84 0.24 -1.2 0.24 c-0.12 0 -0.32 0 -0.44 -0.08 c-0.32 0 -0.48 0.32 -0.76 0.32 c-0.08 0 -0.16 -0.12 -0.24 -0.12 c-0.36 0 -1.92 0.12 -1.92 0.4 c0.12 0.08 0.24 0.32 0.36 0.32 c0.76 0 0.28 -0.4 1.24 -0.4 c0.12 0 0.24 0.08 0.32 0.08 c0.04 0 0.12 -0.04 0.24 -0.16 c0.12 0.04 0.28 0.08 0.28 0.16 c0 0.16 -0.16 0.52 -0.4 0.52 c-0.12 0 -0.32 -0.16 -0.36 -0.2 c-0.2 0.04 -0.72 0.2 -0.88 0.28 c0 0.36 0.28 0.16 0.28 0.36 l0 0.04 l-0.04 -0.04 c-0.28 0.2 -1.76 0.52 -2.12 0.52 c-0.32 0 -0.52 0.2 -0.8 0.2 c-0.44 0 -0.8 0.12 -1.28 0.12 l-0.68 0.28 c-0.36 0.12 -1.08 0.36 -1.48 0.36 c-0.08 0 -0.16 -0.04 -0.28 -0.04 c-0.6 0 -1.92 0.68 -2.48 0.68 c-0.68 0 -0.96 0.32 -1.28 0.32 c-0.16 0 -0.16 -0.4 -0.28 -0.4 c-0.4 0 -0.6 0 -0.8 0.24 l-0.04 0 l0.12 0.16 c0.12 0 0.2 -0.2 0.48 -0.2 c0.04 0.04 0.16 0.16 0.16 0.24 s-0.04 0.12 -0.12 0.12 c-0.04 0 -0.12 0 -0.2 -0.04 c-0.32 0 -0.56 0.2 -0.76 0.2 c-0.08 0 -0.28 -0.04 -0.28 -0.12 c0 -0.28 0 -1.04 0.48 -1.04 c0.16 0 0.36 0.2 0.44 0.28 l-0.04 0 c0 -0.04 0.16 -0.08 0.2 -0.08 l0.36 -0.16 c0.28 -0.04 0.88 -0.28 1.16 -0.28 l0.04 0.04 c0.24 0 0.48 -0.24 0.84 -0.24 c0.16 0.04 0.28 0.12 0.4 0.12 c0.36 -0.28 0.72 -0.52 1.08 -0.76 c0.24 -0.16 0.88 -0.16 1.16 -0.28 c0.2 0 0.28 0.12 0.4 0.16 c0.08 0 0.12 -0.16 0.16 -0.2 c0.16 0.04 0.32 0.08 0.52 0.16 c0.12 0 0.16 -0.04 0.24 -0.12 c0.2 -0.12 1.2 -0.12 1.32 -0.24 l-0.16 -0.16 c0 -0.12 0.16 -0.12 0.2 -0.16 c0 -0.12 -0.16 -0.28 -0.24 -0.28 c-0.28 0 -0.88 0.24 -1.12 0.32 l-0.12 -0.12 l-0.12 0.04 c0 0.2 -0.88 0.08 -1.08 0.4 l-0.2 0 c-0.08 0 -0.16 0 -0.2 -0.04 c-0.24 0.12 -0.6 0.32 -0.84 0.32 c-0.04 0 -0.16 -0.04 -0.16 -0.08 c-0.04 0 -0.76 0.12 -1.16 0.28 c-0.12 0.32 -2.64 0.48 -3.68 1.04 c-1.44 0 -2.6 1.08 -3.84 1.08 c-0.12 0 -0.24 0 -0.28 -0.04 c-0.2 0 -0.28 0.12 -0.32 0.2 c-0.24 0.2 -0.56 0.16 -0.84 0.28 c0.08 0.28 0.68 0.24 0.68 0.32 l-0.2 0.08 c0.04 0.24 0.2 0.24 0.4 0.24 c0.08 0 0.16 0 0.16 -0.12 c-0.08 -0.08 -0.08 -0.2 -0.08 -0.32 c0 -0.28 2.28 -0.96 2.6 -0.96 c0.04 0.04 0.24 0.12 0.24 0.2 c0 0.2 -0.28 0.28 -0.4 0.4 c0.04 0.12 0.2 0.12 0.4 0.12 c0.16 0 0.32 -0.12 0.48 -0.28 c0 -0.08 -0.16 -0.16 -0.16 -0.28 c0.24 -0.2 0.76 -0.64 1.04 -0.64 c0.04 0 0.08 0.04 0.16 0.04 c0 0.36 -0.76 0.88 -0.8 0.96 c-0.16 0.6 -1.28 0.68 -1.84 1 c-0.12 0 -0.28 -0.08 -0.32 -0.12 c-0.08 0 -0.68 0.4 -0.92 0.48 c0.44 0.32 1.28 0.96 1.28 1.52 c0 0.4 -0.36 1.04 -0.44 1.48 c-0.08 0.04 -1.4 5.16 -1.4 5.28 l0 0.04 l0.04 -0.04 c-0.12 1.04 -0.64 2.2 -0.64 3.28 c0 0.12 0 0.28 0.08 0.36 c-0.12 1.36 -0.8 1.56 -0.8 1.84 l0 0.04 c0.12 0 0.4 0.04 0.4 0.2 c0 0.24 -0.32 0.68 -0.52 0.88 c0.04 0.24 0.2 0.52 0.2 0.8 c0 0.24 -0.24 1.16 -0.44 1.32 c0 0.12 0.08 0.28 0.16 0.36 c0 0.2 -0.44 0.32 -0.44 0.56 c0 0.08 0 0.16 0.08 0.28 l0.04 -0.04 c0.12 0 0.16 0.12 0.16 0.2 c0 0.68 -0.36 2.48 -0.52 3.2 c-0.16 0.64 -0.04 1.48 -0.2 1.96 c-0.08 0.16 -0.24 0.24 -0.24 0.4 c0 0.04 0.04 0.12 0.04 0.12 c0 0.04 -0.16 0.24 -0.16 0.28 l0.2 0.36 c-0.08 0.16 -0.12 0.36 -0.12 0.56 s0.12 0.4 0.12 0.6 c0 0.16 -0.04 0.32 -0.12 0.48 l0.08 0.12 c0 0.8 -0.64 1.24 -1.48 1.24 c-1.12 0 -1.2 -0.96 -1.2 -1.72 c0 -0.96 0.24 -1.92 0.24 -2.88 l-0.16 -0.08 c0 -0.52 0.76 -5.04 0.88 -5.12 l0 -0.08 c0 -0.44 0.2 -0.64 0.2 -0.84 c0 -1.48 2.16 -13.44 2.92 -14.12 c-0.04 -0.08 -0.04 -0.12 -0.04 -0.16 c0 -0.44 0.28 -0.8 0.28 -1.2 l-0.04 -0.12 c0.04 -0.16 0.12 -0.28 0.2 -0.44 l-0.2 -0.4 c-0.2 0 -0.2 0.16 -0.32 0.16 l-0.2 -0.08 c-0.64 0 -1.56 0.84 -2.52 0.84 c-0.08 0 -0.08 -0.04 -0.2 -0.04 c-0.32 0.36 -0.96 0.68 -1.48 0.68 c-0.16 0 -0.88 0.48 -1.28 0.52 c-0.12 0.04 -0.84 0.12 -0.84 0.16 c0 0.36 -1.08 0.6 -1.4 0.68 l0 -0.04 c-0.68 0.44 -3.04 1.12 -3.8 1.12 c-1.44 0 -4.12 -0.32 -4.12 -2.16 l0 -0.4 l0 -0.36 c0.04 -0.12 0.08 -0.24 0.32 -0.24 c1.12 0 0.88 1.28 1.32 1.52 c0.04 0 0.12 -0.04 0.12 -0.04 c0.2 0 0.4 0.04 0.6 0.04 c0.72 0 1.64 -0.24 2.24 -0.56 c0.52 -0.24 1.2 -0.12 1.64 -0.52 c0.48 -0.04 4.32 -1.36 4.44 -1.48 c2.36 -0.52 4.12 -1.6 6.32 -2.08 c1.08 -0.2 1.8 -0.72 2.8 -0.84 c0.76 -0.12 1.92 -0.92 3.16 -0.92 c0.76 0 1.32 -0.56 2.08 -0.56 c1.32 0 2.4 -0.8 3.76 -0.8 c0.08 0 0.08 0.04 0.12 0.04 c1.04 0 2.2 -0.6 2.76 -0.6 c0.64 0 4.56 -0.64 5.12 -0.84 c1.28 0 2.6 -0.28 3.84 -0.28 c3.08 0 1.96 1.16 3.4 1.28 z M24.76 12.84 l0.2 -0.12 c0 -0.12 -0.24 -0.2 -0.32 -0.28 c-0.36 0.12 -0.76 0.4 -1.16 0.4 c0 0 -0.08 -0.04 -0.12 -0.04 l-0.04 0.12 c0.16 0.2 0.4 0.2 0.4 0.44 c-0.24 0.32 -0.76 0.36 -1.16 0.44 c0.08 0.08 0.08 0.12 0.24 0.12 c0.52 0 1.04 -0.24 1.56 -0.24 c0.2 -0.2 0.2 -0.44 0.36 -0.64 l-0.16 -0.12 c0 -0.08 0.08 -0.08 0.16 -0.08 l0.04 0 z M29.52 12.32 l0 0.04 c0 0.28 -0.88 0.36 -1.08 0.4 c-0.16 -0.08 -0.24 -0.2 -0.36 -0.32 c0 -0.16 0.48 -0.2 0.6 -0.2 l0.52 0 c0.12 0 0.24 0.08 0.32 0.08 z M8.48 17.04 c0.04 -0.04 0.04 -0.12 0.04 -0.16 c-0.12 -0.12 -0.2 -0.16 -0.32 -0.16 c-0.16 0 -0.56 0.12 -0.56 0.24 c0 0.08 0.2 0.2 0.28 0.2 c0.24 0 0.36 -0.12 0.56 -0.12 z M7.4 17.2 c0 -0.08 0 -0.12 -0.08 -0.12 c-0.24 0 -0.88 0.12 -0.88 0.4 l0.08 0.08 c0.2 0 0.6 -0.36 0.88 -0.36 z M19.96 14.440000000000001 c0 -0.12 -0.04 -0.2 -0.16 -0.28 c-0.16 0.04 -0.2 0.16 -0.36 0.32 c0.04 0 0.2 0.04 0.24 0.04 c0.12 0 0.24 0 0.28 -0.08 z M6.6 18.48 c0 -0.04 0.2 -0.2 0.2 -0.28 c0 -0.04 -0.04 -0.08 -0.08 -0.12 c-0.08 0.08 -0.24 0.2 -0.24 0.28 z M6.2 17.68 l0.04 -0.08 c0 -0.08 -0.08 -0.16 -0.16 -0.16 l-0.2 0.08 c0 0.12 0.12 0.16 0.2 0.16 l0.12 0 z M6.12 34 c0.04 -0.16 0 -0.24 0.08 -0.4 l-0.08 -0.08 c-0.04 0.16 -0.12 0.32 -0.2 0.48 l0.16 0.08 z M27.24 13.120000000000001 c0.08 0.04 0.12 0.08 0.16 0.12 c-0.04 0.04 -0.16 0.12 -0.24 0.12 l-0.12 -0.08 c0.08 -0.08 0.16 -0.12 0.2 -0.16 z M31.68 12.52 c0.08 0.04 0.16 0.08 0.24 0.2 c-0.16 0 -0.28 0 -0.32 -0.16 z M32.68 11.68 l0.16 0 c0 -0.08 -0.04 -0.08 -0.16 -0.08 c-0.04 0 -0.04 0 -0.08 -0.04 z M5.4 38.36 c0 -0.04 0 -0.08 -0.04 -0.12 l-0.04 0.16 l0.04 0.08 c0 -0.04 0.04 -0.08 0.04 -0.12 z M5.2 40 l0 -0.04 l0 -0.04 l-0.04 0.04 c0 0.04 0.04 0.04 0.04 0.04 z M14.559999999999999 25.240000000000002 c0.08 -0.04 0.16 -0.16 0.16 -0.24 l-0.08 -0.08 c0.08 -0.04 0.2 -0.2 0.28 -0.2 l0.08 0.04 l0.08 -0.08 l0 -0.04 c0 0.12 0.24 0.16 0.4 0.16 l0.36 0.24 l0.08 -0.08 l0.04 0.08 l0 0.16 c0.04 0 0.12 0 0.12 0.12 l0 0.04 c-0.08 0.2 -0.08 0.36 -0.08 0.48 l0 0.32 c0 0.36 -0.24 0.72 -0.24 1.12 l0.04 0.12 c-0.64 0.84 -0.36 1.8 -0.72 2.72 c-0.04 0.08 -0.08 0.2 -0.08 0.28 c0 0.04 0 0.08 0.04 0.16 c-0.48 0.88 -0.48 1.84 -0.64 2.28 l0.04 0.08 c0.36 -0.76 0.56 -1 0.68 -1.48 l-0.04 -0.12 l0.04 0.04 c0.16 0 1.08 -2.08 1.76 -2.72 c0.4 -0.36 0.8 -0.76 1.08 -1.2 l0 0 c0.6 -0.28 1.12 -0.28 1.72 -0.48 l0 0.04 s0.08 -0.04 0.16 -0.04 c0.4 0 0.68 0.2 0.68 0.48 c0 0.56 -0.32 0.64 -0.72 0.84 l-0.08 -0.08 l-0.24 0.2 l-0.12 -0.04 l-0.08 0.2 l-0.04 0.04 l0.04 0 l-0.16 -0.08 l0 0.2 c-0.12 0 0 -0.32 -0.16 -0.32 c0 0.24 -0.44 0.48 -0.6 0.56 l0.04 0 c0 0.84 -1.16 1.56 -1.16 1.72 l0.04 0 c-0.08 0.12 -0.4 0.6 -0.4 0.76 l0 0.04 l-0.08 0.04 c-0.16 0.64 -0.6 1.04 -0.84 1.64 l0.08 0.04 c-0.44 0.28 -0.16 1.28 -0.76 1.76 l0 -0.04 c-0.12 0.28 -0.2 0.56 -0.36 0.84 l0.04 0.12 c-0.56 0.52 -0.44 1.4 -0.68 1.6 l-0.48 1.12 l0.04 -0.04 c-0.12 0.4 -0.32 0.72 -0.52 1.08 l-0.04 -0.04 c0 0.2 -0.36 0.32 -0.56 0.36 l-0.08 -0.04 c-0.2 0 -0.72 -0.24 -0.8 -0.36 l-0.12 0.04 c-0.16 -0.16 -0.32 -0.28 -0.52 -0.4 c0 -0.16 0.52 -0.72 0.56 -1.68 l-0.04 0 c-0.08 0 -0.08 -0.04 -0.08 -0.08 c0.08 0 0.12 0 0.12 0.04 c0.08 -0.08 0.08 -0.44 0.12 -0.56 l-0.04 -0.2 c0.2 -0.12 0.08 -0.6 0.16 -0.8 c0 0 -0.04 -0.08 -0.04 -0.12 c0 -0.96 0.64 -1.76 0.64 -3.08 c0.04 -0.12 0.08 -0.28 0.16 -0.36 l-0.04 -0.16 l0.08 -0.12 l0 -0.08 l0 -0.4 c0 -0.12 0 -0.28 -0.04 -0.4 c0.04 -0.08 0.4 -1.36 0.44 -1.48 c0.44 -1.6 0.96 -2.92 1.36 -4.48 z M12.64 34.36 c0 0.2 -0.12 0.36 -0.12 0.48 c0 0.04 0.08 0.12 0.12 0.12 c0 -0.32 0.12 -0.72 0.2 -1.08 l-0.04 -0.04 c-0.16 0 -0.08 0.4 -0.16 0.52 z M12.44 35.92 c0 -0.32 0.04 -0.6 0.16 -0.88 c-0.12 0 -0.16 0.08 -0.16 0.12 s0 0.12 0.04 0.12 c-0.12 0.28 -0.16 0.6 -0.16 0.88 c0 -0.08 0.04 -0.16 0.12 -0.24 z M15.399999999999999 31.32 l0.04 0.12 c0.04 -0.08 0.12 -0.2 0.12 -0.32 l-0.12 -0.04 l0.04 0.04 c-0.04 0.08 -0.04 0.16 -0.08 0.2 z M13.36 30.92 c-0.08 0 -0.12 0.2 -0.12 0.32 l0.08 0.04 c0 -0.12 0 -0.28 0.04 -0.36 z M11.6 37.6 l0.04 0.08 c0 0.12 -0.04 0.24 -0.08 0.32 l0 0 l-0.04 -0.04 c0.04 -0.12 0.08 -0.24 0.08 -0.36 z M11.559999999999999 38.2 l-0.04 0.12 l0 -0.08 c0 -0.04 0 -0.16 0.04 -0.16 l0 0.12 z M12.28 36.84 l-0.08 0.36 c0.04 -0.12 0.08 -0.24 0.08 -0.36 z M12.2 37.48 l0 -0.08 l-0.12 0.12 l0.04 0 l0.08 0 l-0.08 0 z M12.879999999999999 33.28 l0.04 -0.16 c-0.08 0.04 -0.08 0.04 -0.08 0.08 z M13.04 32.480000000000004 l0.04 0.04 c0.04 -0.08 0.04 -0.12 0.04 -0.16 z M11.76 37.24 l-0.04 0.08 l-0.12 0 z M12.92 32.72 l0.04 0.08 l0 -0.08 l-0.04 0 z M13.16 31.759999999999998 l0.04 0 l0.08 0 l-0.08 -0.12 c0 0.04 0 0.12 -0.04 0.12 z M13.36 30.8 l0 0.04 l0.08 0 c0 -0.04 -0.04 -0.04 -0.08 -0.04 z M12.08 38.04 l0 -0.04 l-0.04 0 z M12.959999999999999 32.92 l0 0.08 l0 -0.08 z M13.16 31.92 l0 -0.08 l0 0.08 z M11.559999999999999 38.44 l-0.04 -0.04 c0.04 0 0.04 0 0.04 0.04 z M15.32 31.240000000000002 c-0.04 0.04 -0.04 0.08 -0.04 0.12 c0 -0.04 0.04 -0.08 0.04 -0.12 z M20.439999999999998 27.2 c0 0.04 0 0.04 -0.04 0.08 c0 -0.04 0 -0.04 0.04 -0.08 z M20.240000000000002 28.08 l-0.04 0 l0.04 0 z M24.400000000000002 32.76 l-0.04 -0.04 c0.28 -0.16 0.56 -0.48 0.68 -0.8 l-0.04 -0.04 c0.04 -0.36 0.52 -0.8 0.8 -1.04 l-0.04 -0.08 l0.04 -0.08 l0.08 0.08 l0.2 -0.28 l-0.08 -0.08 l0.12 -0.12 c0 -0.56 1.28 -1.88 1.76 -2.2 l0 0 c0.16 -0.04 0.32 -0.12 0.48 -0.12 l0.04 0.04 c0.16 0 0.24 -0.2 0.44 -0.2 l0 0.04 c0.08 -0.08 0.24 -0.16 0.44 -0.16 l0 0.08 l0.16 -0.08 l0.2 0.04 l0.12 -0.04 c0.04 0.24 0.2 0.2 0.2 0.44 c0 0.2 -0.12 0.48 -0.16 0.68 l0 0.04 c-0.36 0.8 -0.84 1.92 -0.96 2.76 c-0.08 0.8 -0.16 1.72 -0.44 2.44 c0 0.04 0 0.12 -0.08 0.12 c-0.12 0 -0.12 0.44 -0.12 0.52 c0 0.52 -0.16 0.96 -0.16 1.48 c0 0.24 0.08 1.52 0.52 1.52 l0.28 -0.2 c0.12 0 0.04 0.2 0.2 0.2 c0 0.12 -0.12 0.04 -0.16 0.2 c0.04 0.04 0.12 0.08 0.12 0.16 l-0.08 0.2 l0 0.08 c-0.08 0 -0.16 0.12 -0.16 0.16 l0.04 0.04 c0 0.12 -0.16 0.12 -0.24 0.16 l-0.04 -0.08 l-0.2 0.12 l-0.12 0 c-0.12 0 -0.24 0.08 -0.36 0.08 c-0.16 -0.08 -0.24 -0.16 -0.36 -0.16 l-0.04 0.04 c-0.24 -0.04 -0.64 -0.36 -0.8 -0.48 c-0.48 -0.24 -0.52 -0.68 -0.52 -1.16 c0 -0.24 -0.2 -0.48 -0.2 -0.72 c0 -0.4 0.2 -0.88 0.2 -1.36 l-0.04 -0.04 l0.04 -0.12 c0 -0.6 0.16 -0.96 0.16 -1.48 c0 -0.04 -0.08 -0.16 -0.08 -0.2 c-0.04 0.4 -0.8 0.88 -0.92 1.24 c-0.32 0.44 -0.64 0.84 -0.92 1.24 c-1.12 0.8 -0.88 0.92 -1.68 1.64 c-0.28 0.28 -0.64 0.48 -0.96 0.72 l0 -0.04 c-0.68 0 -1.2 0.36 -1.88 0.36 c-0.04 0 -0.24 -0.12 -0.32 -0.12 l-0.16 0.04 c-0.56 -0.64 -0.84 -1.28 -0.84 -2.08 c0 -1 0.32 -2 0.68 -2.96 c0.32 -0.88 0.76 -1.72 1.28 -2.52 c0.16 -0.28 0.36 -0.56 0.52 -0.8 l0.2 -0.32 s0.16 -0.04 0.16 -0.08 l0.52 -1.08 c0 -0.04 0.32 -0.32 0.32 -0.36 c0 -0.16 2.04 -1.64 2.36 -1.84 c0.4 0 0.8 -0.16 1.12 -0.32 c0 0 0.44 -0.2 0.52 -0.2 c0.04 0 0 0 0 0.04 c0.12 -0.04 0.48 -0.12 0.8 -0.12 c0.08 0 0.16 0 0.2 0.04 l-0.04 -0.08 c0.72 0 1.44 0.68 1.88 1.16 c0.04 0.08 0.08 0.12 0.2 0.12 l-0.04 0.04 l0.08 0.12 l0 0.04 l-0.2 -0.04 l-0.08 0.08 c0 0.2 0.28 0.24 0.28 0.36 l-0.2 -0.12 l-0.24 0.08 c0 0.16 0.24 0.2 0.44 0.24 c-0.88 -0.2 -0.96 -0.12 -1.72 -0.6 c-0.28 -0.16 -0.56 -0.6 -0.88 -0.6 c-0.04 0 -0.76 0.2 -0.84 0.24 c0.12 -0.12 0.28 -0.16 0.44 -0.24 c-0.2 0 -1.2 0.48 -1.2 0.68 l0.2 0 c-0.04 0.2 -0.48 0.72 -0.72 0.76 l0.08 0.08 l-0.08 0.04 l0.12 0.12 c-0.28 0.2 -0.68 0.64 -0.68 0.96 c-0.2 0.16 -0.92 1.44 -0.96 1.68 c-0.36 0.2 -0.76 1.08 -0.88 1.48 l0 -0.04 c-0.64 0.72 -1.68 3.52 -1.76 4.56 c0.08 0.08 -0.04 0.16 0.12 0.16 c0.32 -0.36 1 -1 1.52 -1.12 l0.16 0 l0.08 -0.16 l-0.04 0 c0.04 -0.12 0.32 -0.36 0.36 -0.48 l0 0.04 c0 -0.32 0.24 -0.68 0.6 -0.8 l-0.04 0 c0.04 -0.2 0.52 -0.24 0.52 -0.6 l-0.04 -0.04 l0.2 -0.12 l-0.04 0 c0.04 -0.28 0.28 -0.56 0.56 -0.72 z M24.360000000000003 27.759999999999998 c0.16 -0.2 0.52 -0.92 0.88 -0.96 c-0.2 0.36 -0.68 0.64 -0.88 1 l0 -0.04 z M25.32 27.04 l-0.04 -0.04 c0.04 -0.04 0.12 -0.16 0.16 -0.2 l0.08 0.08 c0 0.08 -0.12 0.12 -0.2 0.16 z M25.840000000000003 26.64 c-0.08 0.04 -0.16 0.12 -0.28 0.16 l0 0 c0.08 -0.08 0.2 -0.16 0.28 -0.16 z M20.68 30.560000000000002 c0.04 -0.04 0.08 -0.08 0.08 -0.12 c-0.08 0 -0.08 0.08 -0.08 0.12 z M29.32 27.560000000000002 l-0.08 0 c-0.16 0 -0.28 -0.04 -0.32 -0.08 c0.12 0 0.28 0.08 0.4 0.08 z M22.400000000000002 35.44 l0.08 0 l0 -0.04 z M25.8 31.2 l0.08 0 l0.04 -0.04 c-0.04 0 -0.08 0 -0.12 0.04 z M22.400000000000002 35.44 l-0.04 0.08 l0 0.04 c0.04 -0.04 0.04 -0.08 0.04 -0.12 z M26.400000000000002 34.64 l0 0.08 l0.04 -0.04 z M25.880000000000003 30.6 l-0.04 0 l0.04 -0.04 c0.04 0 0.04 0 0.04 -0.04 c0 0.04 0 0.04 -0.04 0.08 z M25.8 30.64 c0 -0.04 0 -0.04 0.04 -0.04 c0 0.04 0 0.04 -0.04 0.04 z M29.28 27.6 l0 0 l0 0 l0 0 z M22.040000000000003 35.72 l0.12 -0.04 c-0.04 0.04 -0.04 0.04 -0.12 0.04 z M28.76 27.439999999999998 l0 0.04 l0 -0.04 z M30.48 37.76 c0 -0.16 0.08 -0.32 0.08 -0.48 c0 -0.12 -0.04 -0.24 -0.04 -0.4 c0 -0.48 0.08 -0.84 0.2 -1.32 c-0.04 -0.08 -0.04 -0.16 -0.04 -0.24 c0 -0.2 0.12 -0.4 0.12 -0.64 l-0.04 0 l0.04 -0.2 c-0.04 -0.08 -0.04 -0.24 -0.04 -0.44 c0 -1 0.2 -2.24 0.32 -2.36 l-0.12 -0.16 l0.04 -0.12 c-0.04 -0.08 -0.04 -0.2 -0.04 -0.36 c0 -0.84 0.28 -2.64 0.68 -2.64 c0.24 0 0.52 0 0.84 0.12 l0.2 0.08 s0.16 0.08 0.2 0.08 l0 -0.04 c0.44 0.56 0.52 -0.08 0.52 1.24 c0 0.2 -0.2 0.32 -0.2 0.52 c0 0.24 0.12 0.48 0.12 0.72 c0 0.16 -0.12 2.12 -0.28 2.36 c0 0.04 0.04 0.16 0.04 0.2 c0 0.36 -0.12 0.8 -0.12 1.16 c0 0.12 0.04 0.16 0.04 0.24 l0.2 0.12 c0.24 0 1.6 -3.04 1.96 -3.04 c0.12 0 0.16 0.08 0.16 0.2 l-0.2 0.4 l0.04 0.08 c0 0.08 -0.2 0.2 -0.32 0.24 c-0.04 -0.04 -0.12 -0.04 -0.2 -0.08 c-0.12 0 -0.2 0.2 -0.2 0.24 c0 0.16 0.24 0.16 0.36 0.2 c0.52 0 0.72 -2 1.28 -2.32 c-0.04 0 -0.32 0 -0.32 -0.12 c0 -0.16 0.08 -0.32 0.28 -0.36 c0.12 0.08 0.2 0.24 0.4 0.24 l0.12 -0.16 c0 -0.08 -0.12 -0.12 -0.16 -0.16 c0.04 -0.12 0.24 -0.36 0.24 -0.44 l-0.12 -0.08 l-0.12 0.08 c-0.04 -0.08 -0.16 -0.16 -0.16 -0.24 c0 -0.44 0.64 -0.44 0.76 -0.72 l0.08 0.04 c-0.04 0.28 -0.08 0.48 -0.36 0.64 l0.08 0.04 c0.32 0 0.52 -0.4 0.6 -0.68 l0.08 -0.24 c0 -0.04 0.04 -0.12 0.04 -0.12 c0.08 -0.28 0.32 -0.28 0.32 -0.56 c0 -0.36 -0.44 -0.2 -0.44 -0.4 c0 -0.16 0.12 -0.28 0.28 -0.36 l0.12 0.04 l0.08 -0.08 c-0.08 -0.04 -0.2 -0.12 -0.2 -0.2 l0.04 -0.04 l0.16 0.04 l0.08 0 l0.08 0.16 c0 0.12 -0.16 0.2 -0.16 0.48 l0.08 0.04 c0.36 -0.08 0.48 -0.68 0.48 -0.96 c-0.08 -0.04 -0.2 -0.2 -0.2 -0.28 l0.08 -0.08 l0.12 0.08 c0.24 0 0.56 -0.12 0.64 -0.36 c-0.16 -0.16 -0.4 0 -0.4 -0.2 s-0.2 -0.24 -0.32 -0.32 c0.04 -0.08 0.12 -0.28 0.24 -0.28 c0.08 0 0.24 0.28 0.24 0.36 l0 0.12 c0 0.08 0.16 0.12 0.2 0.12 c0.16 0 0.16 -0.24 0.32 -0.32 l0.12 0.08 l-0.12 0.2 l0.12 0 c0.16 0 0.24 0.2 0.24 0.36 c0 0.32 -1 1.28 -1.16 2.08 c-0.2 0.84 -0.44 1.56 -1.04 2.24 c0.04 0.04 0.08 0.16 0.08 0.2 c0 0.28 -0.32 0.92 -0.52 1.2 c-0.64 1.2 -0.68 2 -1.4 2.92 c0 0.48 -0.36 0.84 -0.52 1.28 c-0.32 0.72 -1.8 3.76 -2.72 3.76 c-0.12 0 -0.16 -0.04 -0.24 -0.04 s-0.2 0.12 -0.32 0.12 c-0.6 0 -1.44 -0.4 -1.44 -1.04 c0 -0.48 0.04 -0.96 0.04 -1.44 z M40.160000000000004 23.12 l0 0.12 c0 0.52 -0.64 0.96 -0.64 1.16 s-0.32 0.28 -0.44 0.36 l-0.08 -0.16 l0 -0.2 c0.08 -0.08 0.64 -0.48 0.64 -0.64 l0 0 c0.08 -0.16 0.32 -0.64 0.52 -0.64 z M37.160000000000004 28.240000000000002 c0 0.24 -0.04 0.52 -0.32 0.52 c-0.12 0 -0.12 -0.04 -0.12 -0.12 c0 -0.24 0.2 -0.56 0.28 -0.72 c0.08 0.08 0.16 0.2 0.16 0.32 z M39.68 25.52 l0.16 0.08 l0.2 -0.08 l0.04 0.16 c-0.08 0.08 -0.32 0.28 -0.4 0.28 c-0.12 0 -0.12 -0.12 -0.12 -0.16 l0 -0.12 c0 -0.08 0 -0.16 0.12 -0.16 z M40.400000000000006 24.880000000000003 l0 0.12 c-0.12 0.16 0 0.24 -0.24 0.36 l-0.08 0 c0.12 -0.16 0.12 -0.36 0.32 -0.48 z M39 25.2 l-0.08 -0.2 c0.08 -0.08 0.12 -0.12 0.12 -0.16 c0.04 0.04 0.08 0.12 0.08 0.2 z M39.800000000000004 25.119999999999997 l-0.08 -0.08 c0 -0.04 0.08 -0.08 0.2 -0.08 c0 0 0.04 0.04 0.08 0.04 c0 0.12 -0.08 0.12 -0.2 0.12 z M38.2 26.16 l0.12 -0.12 l0.04 0.12 l-0.04 0.16 z M34.2 34.72 l0.08 -0.08 l0 -0.08 l-0.2 0.12 z M39.36 25.16 l-0.04 0.04 l-0.08 -0.04 l0.12 0 z M50.720000000000006 32.04 l0.16 0.28 c-1.04 1.32 -2.4 2.48 -3.76 3.44 c-0.4 0.28 -1.68 0.8 -1.76 1.2 l0.2 0.08 l-0.32 0.24 l0.04 0.04 c0.52 -0.12 0.8 -0.48 1.24 -0.68 l0.48 0.2 c-0.16 0.16 -0.4 0.36 -0.68 0.52 l0.16 0.12 c-0.36 0.2 -0.68 0.44 -1.04 0.68 c-0.24 0.16 -2.52 0.96 -2.76 0.96 c-2.28 0 -4.12 -1.12 -4.12 -2.8 c0 -1.2 0.08 -2.8 0.72 -3.88 c-0.12 0.12 0.56 -0.68 0.56 -1.24 c0 -1.2 2.8 -4.4 3.6 -5.28 c0.6 -0.68 1.4 -0.88 2.36 -0.88 c1.52 0 2.72 1.12 2.72 2.48 c0 2 -0.76 1.68 -1 2.48 c-0.48 1.48 -3.36 2.84 -4.96 2.84 c-0.24 0 -0.44 -0.04 -0.68 -0.04 c-0.56 0 -0.72 1.76 -1 1.96 l0 0.16 c0 0.44 -0.12 1.44 -0.12 1.8 c0 0.4 0 1.56 0.64 1.56 c3.92 0 5.52 -4.12 8.32 -5.44 c0.32 -0.16 0.96 -0.48 1 -0.8 z M42.120000000000005 31.6 l0 0.16 c0 0.08 0 0.32 0.16 0.32 c0.2 0 0.96 -0.4 1.16 -0.52 c0.44 0 3.12 -2.04 3.16 -2.36 c0.08 -0.48 0.36 -0.96 0.36 -1.44 c0 -0.32 -0.08 -1.76 -0.64 -1.76 c-1.2 0 -2.68 3.56 -3.4 4.08 c-0.16 0.48 -0.44 1.16 -0.8 1.52 z M47.64 27.439999999999998 c-0.12 0 -0.6 0.84 -0.6 0.96 s0.04 0.28 0.16 0.28 c0.24 -0.32 0.44 -0.76 0.52 -1.12 l0.04 -0.08 z M39.28 34.2 c0.04 -0.2 0.16 -0.44 0.28 -0.6 c0 -0.04 0 -0.2 -0.08 -0.2 s-0.2 0.52 -0.28 0.6 c0 0.08 0 0.16 0.08 0.2 z M45.6 37.68 l-0.04 0.04 c0.04 0 0.08 0.04 0.08 0.04 c0.16 0 0.44 -0.2 0.52 -0.24 l-0.04 -0.08 c-0.28 0 -0.32 0.24 -0.52 0.24 z M49.68000000000001 32.6 l0 -0.04 c0.16 -0.16 0.4 -0.28 0.56 -0.44 c-0.04 0.24 -0.36 0.44 -0.56 0.48 z M39.32000000000001 35.4 c0 -0.04 0.12 -0.16 0.12 -0.2 s0 -0.12 -0.04 -0.16 c-0.16 0 -0.2 0.16 -0.2 0.24 s0.08 0.12 0.12 0.12 z M39.720000000000006 32.92 l0.12 -0.16 l-0.04 -0.08 l-0.16 0.08 l0 0.2 z M39.2 34.56 c0 -0.04 -0.08 -0.16 -0.08 -0.2 l-0.04 0.16 c0 0.08 0 0.12 0.04 0.2 c0.04 -0.04 0.08 -0.08 0.08 -0.16 z M40.760000000000005 30.52 c0 -0.04 -0.04 -0.04 -0.04 -0.08 l-0.16 0.08 l0.04 0.12 z M40.64 30.32 c0.08 -0.04 0.08 -0.12 0.12 -0.16 l-0.04 -0.08 c-0.08 0.08 -0.12 0.12 -0.16 0.24 l0.08 0 z M39.88 34.92 l0.12 -0.12 l-0.12 -0.04 l0 0.16 z M50.52 32 l0 0.04 c-0.08 0.04 -0.2 0.04 -0.28 0.08 c0.16 -0.08 0.08 -0.12 0.28 -0.12 z M39.080000000000005 35.12 l0.04 0 c0 -0.04 -0.04 -0.12 -0.08 -0.16 l-0.04 0.16 l0.08 0 z M40.84 32.96 l0 -0.2 c-0.04 0.08 -0.08 0.12 -0.08 0.24 z M41.00000000000001 30.64 l-0.08 0 l0.04 0.08 c0.04 -0.04 0.08 -0.04 0.08 -0.08 l-0.04 0 z M39.6 33.2 l0.04 0 l-0.04 -0.04 l0.04 0 l-0.04 -0.04 l0 0.08 z M57.800000000000004 15.280000000000001 c0 0.52 -0.84 1.44 -0.84 1.92 c-0.88 1.52 -1.84 4.92 -2.24 6.68 c-0.12 0.52 -0.52 1.2 -0.56 1.68 c0 0.28 -0.2 1.96 -0.52 1.96 c-0.12 0 -0.12 -0.08 -0.12 -0.08 l-0.12 0.12 c0 0.12 0.12 0.12 0.2 0.2 c-0.12 0.52 -0.68 2.08 -0.68 2.64 c0 0.04 0 0.08 0.04 0.12 c-0.12 0.36 -0.2 0.44 -0.2 0.72 c0 0.08 0 0.2 0.04 0.36 l-0.24 0.24 c0 0.12 0.04 0.24 0.04 0.4 c0 0.6 -0.64 2.68 -0.64 3.48 c0 0.12 0 0.2 0.04 0.24 c-0.24 0.2 -0.28 0.56 -0.28 0.88 l0 0.36 c0 0.8 0.04 2.36 0.36 2.84 c0.08 0.16 0.24 0.12 0.32 0.2 c0.16 0.2 0.48 0.8 0.8 0.8 c0.8 0 2 -1.64 2.4 -1.76 l0.04 0.16 c-0.64 1.44 -1.04 2.4 -3.24 2.4 c-2.4 0 -2.96 -2.28 -2.96 -3.64 c0 -0.32 0.04 -0.64 0.04 -0.96 c0 -0.28 -0.04 -0.56 -0.04 -0.84 c0 -0.24 0.28 -0.64 0.32 -0.88 c0.08 -1 0.28 -1.92 0.48 -2.92 l-0.04 -0.04 c0.52 -1.68 1.08 -3.84 1.08 -4.16 c0 -0.6 1.12 -3.64 1.28 -4.68 c0.2 -0.96 0.32 -2.04 0.68 -2.96 c0.44 -1.08 0.68 -0.56 0.96 -2.24 l-0.08 -0.08 c0.12 -0.76 0.44 -1.52 0.72 -2.2 c0.88 -0.6 0.28 -1.92 2.16 -1.92 c0.6 0 0.8 0.48 0.8 0.96 z M50.52 36.24 l0.08 -0.32 l0.04 0 s-0.04 -0.08 -0.04 -0.12 c0 -1 0.6 -3.88 0.88 -5 l-0.16 0.16 l-0.04 0 c0.04 -0.68 0.52 -1.4 0.72 -2.04 c0.48 -1.8 0.84 -3.56 1.52 -5.32 c0.36 -0.96 0.88 -1.92 1.2 -2.88 c-0.2 0.08 -1.8 3.72 -1.84 4.16 c-0.04 0 -0.04 -0.12 -0.04 -0.16 c0 -0.88 2.12 -5.32 2.44 -7.68 l-0.08 -0.08 c-0.12 0.24 -0.64 1.12 -0.64 1.28 l0.04 0 c-1 2.64 -1.56 5.36 -2.48 8 c-0.12 0.32 -0.2 0.56 -0.24 0.88 c-0.12 0.64 -1.44 5.48 -1.44 5.84 l0 0.04 c-0.44 1.24 -0.68 2.52 -0.68 3.84 c0 0.52 0 1 0.08 1.52 c0 0.04 -0.04 0.12 -0.04 0.12 c0 0.16 0.04 0.28 0.04 0.4 l0.08 -0.2 c0 -0.04 -0.04 -0.08 -0.04 -0.16 c0 -0.36 0.12 -0.76 0.16 -1.12 c0 0.52 0 1.08 0.16 1.56 c0.08 -0.12 0.24 -0.44 0.24 -0.56 c0 -0.2 -0.12 -0.36 -0.12 -0.56 c0 -0.32 0.28 -0.32 0.28 -0.52 c0 -0.16 -0.2 0.04 -0.2 -0.24 c0.2 -0.16 0.2 -0.44 0.32 -0.68 l-0.08 -0.24 z M51.56 37.24 c0 -0.08 0 -0.12 -0.12 -0.16 l-0.24 0.32 c-0.04 0 -0.12 -0.04 -0.12 -0.08 c-0.2 0 -0.2 0.36 -0.2 0.56 c0 0.12 0 0.24 0 0.2 c0 0.2 0.12 1 0.44 1 c0.12 0 0.12 -0.12 0.12 -0.16 c-0.08 -0.08 -0.08 -0.2 -0.08 -0.28 l0 -0.32 l-0.12 0.04 c-0.08 -0.04 -0.12 -0.12 -0.12 -0.2 s0.36 -0.84 0.44 -0.92 z M51.440000000000005 36.88 l0.16 -0.6 l-0.04 -0.12 c0.04 -0.04 0.04 -0.08 0.04 -0.16 l-0.16 0 c0 -0.16 0.16 -0.2 0.16 -0.28 s-0.24 -0.16 -0.24 -0.52 c-0.16 0 -0.24 0.76 -0.28 0.88 l0 0.36 c0 0.28 0 0.6 0.08 0.6 l0.08 -0.04 c0 -0.12 -0.04 -0.24 -0.08 -0.32 l0.08 -0.08 c0.12 0 0.08 0.16 0.2 0.28 z M51.6 33.44 l0.16 -0.04 l0 0.12 c0 0.16 -0.24 0.28 -0.28 0.44 l0.04 0.16 c-0.08 0.04 -0.08 0.12 -0.08 0.2 l0.08 0.12 c0.44 -0.4 0.6 -1.04 0.6 -1.4 c0 -0.12 -0.2 -0.16 -0.36 -0.16 c0 0.16 -0.08 0.36 -0.16 0.56 z M52.2 27.16 l0.12 0.04 c-0.12 0.32 -0.56 2.04 -0.76 2.2 c0.16 -0.8 0.32 -1.48 0.64 -2.24 z M55.040000000000006 18.6 c-0.28 0.08 -0.52 1.16 -0.64 1.44 c0.2 -0.28 0.64 -1.16 0.64 -1.44 z M52.52 29.92 l0.2 0.08 c0.12 -0.04 0.12 -0.08 0.12 -0.2 s0 -0.28 -0.08 -0.32 c-0.12 0.04 -0.12 0.32 -0.24 0.44 z M53.040000000000006 26 c-0.08 0.24 -0.08 0.52 -0.2 0.72 l0.04 0.08 c0.12 -0.16 0.2 -0.32 0.32 -0.48 c-0.16 -0.12 -0.16 -0.16 -0.16 -0.32 z M50.720000000000006 33.2 c0 -0.32 0 -1 0.36 -1.24 c-0.2 0.36 -0.32 0.88 -0.36 1.24 z M52.160000000000004 29.04 l0.12 0.04 c0.08 -0.12 0.16 -0.32 0.24 -0.4 c-0.08 -0.12 -0.04 -0.24 -0.12 -0.32 c-0.08 0.2 -0.12 0.48 -0.24 0.68 z M52.32 31.28 l-0.04 0 l0.04 -0.16 l0 -0.04 c-0.2 0.08 -0.32 0.32 -0.36 0.48 l0.04 0.08 c0.12 -0.08 0.2 -0.2 0.32 -0.36 z M50.720000000000006 35.36 l0.04 0.16 c0.12 -0.08 0.2 -0.24 0.2 -0.4 c0 0 0 -0.12 -0.08 -0.12 c-0.12 0.12 -0.16 0.24 -0.16 0.36 z M50.68000000000001 33.44 l0.04 0.16 c-0.04 0.12 -0.12 0.24 -0.16 0.36 c0 0.04 0.04 0.08 0.04 0.16 c0 0.04 -0.04 0.08 -0.04 0.08 c-0.04 -0.04 -0.04 -0.12 -0.04 -0.2 c0 -0.12 0.04 -0.48 0.16 -0.56 z M53.52 24.439999999999998 c-0.12 0 -0.16 0.32 -0.16 0.4 c0 0.04 0.04 0.12 0.12 0.16 l0.16 -0.08 c-0.12 0 -0.12 -0.2 -0.12 -0.32 l0 -0.16 z M52.92 28.92 l-0.04 -0.16 c-0.12 0 -0.24 0.24 -0.24 0.32 c0.16 0 0.24 -0.04 0.28 -0.16 z M51.64 32.64 l-0.04 -0.04 c-0.12 0.08 -0.16 0.2 -0.16 0.32 c0.08 0 0.16 -0.2 0.2 -0.28 z M51.6 33.44 l-0.08 0 c-0.08 0 -0.24 0 -0.28 0.08 c0.04 0 0.2 0.08 0.24 0.08 c0.12 0 0.08 -0.08 0.12 -0.16 z M52.64 30.560000000000002 l0.08 -0.04 l-0.08 -0.24 l-0.16 0.2 c0 0.08 0.08 0.08 0.12 0.08 l0.04 0 z M51.28 34.92 l0.16 0.12 l0.08 -0.24 l-0.04 -0.04 z M51.760000000000005 34.72 l-0.16 0.12 l0 0.04 c0 0.04 0.04 0.08 0.12 0.08 l0.16 -0.16 z M51.64 34.480000000000004 l0.08 0.12 l0.08 -0.12 l-0.08 -0.16 z M53.84 23.52 l-0.2 0.4 l0.04 0 c0.08 0 0.16 -0.32 0.16 -0.4 z M53.040000000000006 28.32 l-0.08 -0.08 c-0.04 0 -0.08 0.08 -0.12 0.12 l0.16 0.04 z M53.400000000000006 25.2 l-0.04 0 c-0.08 0 -0.12 0.04 -0.12 0.16 l0.04 0 c0.08 0 0.08 -0.08 0.12 -0.16 z M52.800000000000004 25.32 l-0.04 -0.16 l0.08 -0.12 c0 0.04 -0.04 0.24 -0.04 0.28 z M50.720000000000006 38.52 l-0.08 0.08 l0.08 0.04 l0.08 0 z M52 29.92 l0.08 -0.08 l-0.08 -0.08 c-0.04 0.04 -0.04 0.08 -0.04 0.08 z M52.32 26.759999999999998 c0 0.04 0 0.16 -0.12 0.2 l-0.04 0 c0.04 -0.08 0.12 -0.16 0.16 -0.2 z M52.32 32.2 l-0.04 -0.16 l0 0.2 z M51.440000000000005 32.44 l-0.12 0.12 l0.04 0.04 c0.08 0 0.08 -0.04 0.08 -0.04 l0 -0.12 z M51.760000000000005 40.96 l-0.04 -0.08 c-0.04 0.04 -0.12 0.04 -0.12 0.12 l0.08 0.04 z M51.440000000000005 38 l-0.08 -0.08 l-0.08 0.12 c0.04 0 0.16 -0.04 0.16 -0.04 z M53.28 26.08 l0.04 -0.08 l0 -0.04 l-0.12 0.04 z M52.32 31.6 l0.08 0 l-0.08 -0.04 l0 0.04 z M52 32.32 c-0.04 0 -0.04 0 -0.04 0.08 l0 0 c0.04 0 0.04 -0.04 0.04 -0.08 z M52.96 28 c0.04 0 0.04 0.04 0.04 0.08 l0.08 -0.04 c-0.04 -0.04 -0.08 -0.04 -0.12 -0.04 z M52.36 30.32 c0.04 0.04 0.04 0.04 0.08 0.04 c0 -0.04 0 -0.04 0.04 -0.04 l-0.12 0 z M51.160000000000004 39.56 c-0.04 0.04 -0.04 0.04 -0.04 0.08 l0.04 0 l-0.04 0 c0 -0.04 0.04 -0.04 0.04 -0.08 z M50.120000000000005 37.04 c0 0.16 0 0.24 -0.08 0.36 c0.08 -0.12 0.08 -0.2 0.08 -0.36 z M52.480000000000004 30.96 l0 0.04 l0.04 -0.04 l-0.04 0 l0 0 z M51.080000000000005 39.32 c0 0.04 0 0.04 0.04 0.04 l0.04 -0.04 c-0.04 0 -0.04 0 -0.04 -0.04 c-0.04 0 -0.04 0 -0.04 0.04 z M53.28 27.119999999999997 l-0.04 0 c0.04 0 0.04 0 0.04 0.04 c0.04 0 0.04 0 0.04 -0.04 l-0.04 0 z M52.64 29.32 l0 -0.04 c-0.04 0.04 -0.04 0.04 -0.04 0.08 l0.04 -0.04 l0 0 z M51.32 33.84 l-0.04 0 l0 0.04 c0.04 0 0.04 0 0.04 -0.04 z M52.64 27.6 l0 0.08 l0 -0.08 z M50.440000000000005 36.76 l0 -0.04 l0.08 0 c0 0.04 0 0 -0.08 0.04 z M51.440000000000005 40.28 l-0.08 0.08 c0.08 0 0.08 -0.04 0.08 -0.04 l0 0 l-0.08 0 s0.08 0 0.08 -0.04 z M59.96 36.04 c0 0.08 0 0.2 -0.04 0.32 l0.04 0.08 c0.52 -0.44 1.8 -3.16 2.64 -3.16 l-0.04 0.24 c0.92 -0.88 1.36 -1.04 1.64 -1.44 c-0.4 0.04 -0.96 0.88 -1.2 0.88 c0 -0.28 0.56 -0.6 0.76 -0.84 l-0.04 -0.04 c-0.8 0.2 -1.32 1.2 -1.72 1.28 c-0.08 0.12 -0.16 0.2 -0.28 0.28 l0 -0.08 c0 -0.44 0.96 -1 1.04 -1.16 l-0.16 -0.08 l-0.16 0.08 l-0.2 -0.16 l-0.24 0.16 l0.08 0.08 l-0.28 0.08 l-0.16 0 c-0.28 0 -0.76 0.12 -1.12 0.28 l-0.2 -0.12 c-0.04 0 -0.12 0.04 -0.16 0.04 c-0.2 0 -0.36 -0.08 -0.52 -0.08 c-0.04 0 -0.08 0 -0.12 0.04 c-0.44 -0.08 -1.28 -0.08 -1.48 -0.52 c-0.6 -0.56 -1.24 -1.04 -1.24 -1.88 c0 -0.88 1.68 -1.44 1.92 -1.88 l-0.04 -0.04 c1.52 -0.92 2.36 -1.76 3.88 -2.72 c1.12 -0.64 2.24 -1.32 3.36 -2.04 c0 -0.16 -0.72 -0.64 -0.88 -0.76 c0 -0.4 -0.16 -0.8 -0.16 -1.2 c0 -0.08 0 -0.16 0.04 -0.28 l-0.04 -0.2 c0.12 -0.24 0.12 -0.48 0.12 -0.76 c0 -0.36 0.24 -0.64 0.24 -0.92 c0 -0.12 -0.16 -0.2 -0.16 -0.32 c0 -0.4 0.44 -0.88 0.44 -1.24 c0 -0.04 0 -0.08 -0.04 -0.12 c0.16 -0.32 0.24 -0.64 0.24 -0.96 l0 -0.48 l-0.08 -0.12 c0 -0.16 0.4 -0.72 0.48 -0.92 c0 -0.28 0.04 -0.6 0.48 -0.6 c0.32 0.2 0.84 0.44 1.24 0.44 c0.04 0 0.04 -0.04 0.08 -0.04 c0.32 0 1.2 0.44 1.2 0.76 c0 0.4 -0.56 1.36 -0.56 1.56 c0 0.04 0.04 0.04 0.04 0.04 c-0.48 0.48 -0.36 0.96 -0.52 1.52 c-0.04 0.12 -0.32 0.44 -0.32 0.56 c0 0.04 0.04 0.16 0.04 0.2 c0 0.28 -0.2 0.4 -0.2 0.64 c0 0.56 -0.28 2 -0.56 2.48 c0.04 0.04 0.16 0.12 0.2 0.12 c0.44 -0.08 0.84 -0.2 1.28 -0.2 c0.64 0 1.16 0.28 1.6 1.04 c-0.08 0.24 -1.04 0.68 -1.36 0.68 c-0.36 0 -0.92 0.44 -1.24 0.64 c-1.08 0 -1.52 1 -2 1.16 c-0.4 0.12 -0.88 0.4 -1.12 0.76 c-0.4 0.24 -2.12 1.24 -2.28 1.56 c-0.44 0.76 -1.68 1.04 -2.36 1.84 c-0.12 0.12 -0.24 0.28 -0.36 0.32 l-0.04 0 c-0.08 0.12 -0.36 0.4 -0.36 0.56 l0.08 0.12 l0.12 -0.04 c0.24 0 0.52 0.04 0.76 0.04 c1.2 -0.44 2.64 -0.4 3.72 -1.04 l0.08 0.08 l-0.08 0.16 l0.16 0.16 c0.12 0 0.36 -0.08 0.36 -0.2 l-0.2 -0.2 c0 -0.04 1.76 -0.6 2.64 -1.08 c0.2 0.04 0.28 0.32 0.4 0.32 l0.04 0 c0.12 0 0.2 -0.04 0.28 -0.04 c0.52 0 1.28 0.2 1.76 0.6 c0 0.24 -0.32 0.6 -0.32 0.8 l0 0.04 l-0.24 0 c-0.48 0.96 -1.4 0.96 -1.52 1.12 c-0.2 0.6 -1.08 0.64 -1.08 0.76 c-0.24 0.36 -0.8 0.48 -0.84 0.76 c-0.72 0.32 -0.92 0.88 -1.12 1.04 c-1.16 0.64 -1 1.6 -1.64 1.92 l0.04 0.08 c0 0.36 -0.32 0.68 -0.32 1.04 l0.12 0.04 c0.32 -0.16 2.44 -1.2 2.8 -1.2 l0.08 0.12 l-0.08 0.08 c-0.08 0 -0.12 -0.04 -0.16 -0.04 c-0.12 0 -0.2 0.12 -0.28 0.2 c0.04 0.04 0.08 0.16 0.16 0.16 c0.56 -0.32 1.16 -0.68 1.76 -0.96 l0.16 0.04 c0.28 0 0.24 -0.44 0.6 -0.44 c0 0.04 0 0.08 0.04 0.08 c-0.2 0.08 -0.36 0.28 -0.44 0.48 l0.08 0 c0.12 -0.12 0.6 -0.52 0.8 -0.52 c-0.24 1.16 -1.76 1.48 -1.76 2.08 c0 0.12 0.56 0.84 0.56 1.04 c0 0.16 -0.08 0.32 -0.08 0.44 c0 0.16 0.08 0.28 0.08 0.44 c0 0.2 -0.4 0.84 -0.4 1.12 c0 0.12 0.04 0.2 0.04 0.36 c0 0.44 -0.84 0.16 -0.92 0.52 l-0.12 0.16 c-0.04 0 -0.08 -0.04 -0.2 -0.04 c-0.28 0 -0.48 0.48 -0.64 0.48 c-0.4 0 -0.44 -1.24 -0.44 -1.48 c0 -0.64 0.12 -1.32 0.28 -1.92 l-0.16 -0.08 l-0.16 0.12 c-0.04 0 -0.12 -0.04 -0.12 -0.04 c-0.2 0 -0.32 0.12 -0.48 0.12 c-0.12 0 -0.24 -0.08 -0.32 -0.08 s-0.24 0.08 -0.32 0.08 c-0.04 0 -0.16 -0.08 -0.2 -0.08 c-0.12 0.04 -0.16 0.04 -0.24 0.04 c-1.2 0 -2.24 -1.28 -2.48 -2.32 c0.12 -0.28 0.16 -0.6 0.32 -0.8 z M61.2 26.92 c-0.28 0 -0.96 0.68 -1.2 0.84 c-0.2 0.24 -2 1.32 -2 1.44 l0.12 0.12 c0.44 -0.04 2.6 -2 3.16 -2.36 c-0.04 0 -0.08 -0.04 -0.08 -0.04 z M61.16 27.68 c0 0.04 0.04 0.08 0.04 0.08 c0.4 0 1.24 -0.68 1.48 -0.96 c0.52 0 1.08 -0.64 1.32 -0.96 c-0.36 0.2 -2.68 1.56 -2.84 1.84 z M59.32 29.119999999999997 l0.04 0.04 c0.96 -0.44 1.28 -0.92 1.68 -1.28 c-0.72 0 -0.8 0.72 -1.2 0.72 z M65.96 35.96 c0 0.12 0.08 0.12 0.16 0.12 c0 0.36 -0.64 0.56 -0.96 0.64 l-0.08 -0.12 c0 -0.36 0.64 -0.4 0.88 -0.64 z M62.64 26 c0.24 0 0.64 -0.32 0.76 -0.48 l-0.08 0 l0 0 c-0.68 0.2 -2 1.2 -2 1.44 c0.44 -0.32 0.92 -0.6 1.32 -0.96 z M61.32 27.28 c0.04 0 0.2 0 0.24 -0.12 l-0.08 -0.04 c-0.28 0 -1.52 1.12 -1.76 1.32 c0.24 -0.16 1.6 -0.96 1.6 -1.16 z M60.84 34.68 c0 -0.12 0.48 -0.76 0.64 -0.76 l0.04 0.08 c0 0.16 -0.48 0.64 -0.68 0.68 z M63.84 32.88 l-0.08 0 c-0.2 0.32 -0.68 0.32 -0.68 0.64 l0.04 0.04 c0.2 0 0.6 -0.52 0.72 -0.68 z M60.84 34.68 c-0.04 0.28 -0.16 0.44 -0.44 0.6 c0.04 -0.28 0.2 -0.48 0.44 -0.6 z M65.44 24.96 c-0.16 0.04 -0.24 0.08 -0.32 0.16 l0.04 0.04 c0.2 -0.08 0.52 -0.28 0.72 -0.44 l-0.12 0 c-0.16 0.04 -0.28 0.12 -0.32 0.24 z M64.28 30.64 l0.08 0.08 c0.2 0 0.36 -0.04 0.4 -0.2 c-0.04 0 -0.48 0 -0.48 0.12 z M61.44 35.2 l0 0.04 c0.12 0 0.4 -0.36 0.48 -0.44 l0 0 c-0.2 0 -0.4 0.28 -0.48 0.4 z M66.84 35.6 c0 -0.16 0.16 -0.16 0.16 -0.32 c0 0 0 -0.04 -0.04 -0.12 l0.12 -0.08 c0 0.04 0.08 0.16 0.08 0.2 c0 0.16 -0.2 0.24 -0.32 0.32 z M62.6 33.28 c0.04 -0.16 0.2 -0.32 0.4 -0.32 c-0.08 0.16 -0.2 0.32 -0.4 0.32 z M60.84 28.560000000000002 c0.08 0 0.28 -0.12 0.28 -0.2 c-0.08 0.08 -0.64 0.44 -0.72 0.44 l0.12 0.04 c0.16 -0.12 0.32 -0.16 0.32 -0.28 z M58.72 29.52 c0.16 0 0.44 -0.12 0.44 -0.28 l-0.04 -0.04 c-0.2 0 -0.24 0.24 -0.4 0.32 z M64.28 32.6 c-0.08 -0.04 0 -0.04 -0.08 -0.04 s-0.2 0.08 -0.24 0.16 l0.04 0.04 c0.12 0 0.2 -0.08 0.28 -0.16 z M63.68 25.68 l0.08 0 l0.4 -0.28 l-0.04 -0.04 c-0.12 0.16 -0.28 0.24 -0.44 0.32 z M60.28 37 l0.04 0.04 l0.12 -0.28 l-0.08 -0.04 c-0.08 0.08 -0.08 0.12 -0.08 0.28 z M63.28 26 l-0.04 -0.04 c-0.12 0 -0.2 0.08 -0.28 0.16 l0.08 0.04 c0.08 -0.04 0.24 -0.08 0.24 -0.16 z M64.56 25.48 c-0.12 0.12 -0.28 0.2 -0.44 0.32 c0.2 0 0.44 -0.12 0.44 -0.32 z M57.84 29.52 l0.04 -0.12 l-0.08 -0.04 l-0.12 0.04 c0 0.08 0.08 0.12 0.16 0.12 z M60.12 29.119999999999997 l0.04 0.04 c0.04 0 0.16 -0.08 0.16 -0.12 l-0.08 -0.08 z M58.84 29.16 c0.2 0 0.44 -0.24 0.52 -0.36 c-0.2 0.16 -0.4 0.2 -0.52 0.36 z M65.44 30.16 l0.2 -0.12 l-0.04 -0.04 l-0.24 0.16 l0.08 0 z M68.4 34.64 l-0.04 0 l0.04 -0.12 l0.16 0.08 z M58.4 29.84 l-0.2 0.12 l0.04 0.04 c0.08 -0.04 0.16 -0.12 0.16 -0.16 z M61.32 34.88 l0 0.04 c0.12 0 0.16 -0.12 0.16 -0.2 c-0.12 0 -0.16 0.08 -0.16 0.16 z M64.4 24.84 l0.04 0.04 l0.16 -0.08 l-0.04 -0.08 z M59.96 36.04 l0.16 -0.24 l0.04 0.08 c0 0.04 -0.12 0.12 -0.2 0.16 z M60.84 35.480000000000004 l0.04 0 l0.12 -0.12 l-0.08 0 c-0.04 0 -0.08 0.04 -0.08 0.08 l0 0.04 z M61.2 35.6 l-0.04 -0.04 l0 0.12 c0.04 -0.04 0.04 -0.08 0.04 -0.08 z M62.2 26.64 l0.24 -0.08 l-0.08 -0.04 z M61.96 34.12 l0.24 0.04 l-0.12 -0.12 c-0.04 0.04 -0.08 0.04 -0.12 0.08 z M60.32 35.36 l0.08 -0.08 l-0.04 0.12 z M63.56 25.4 l0.2 -0.08 c-0.08 0 -0.12 0.04 -0.2 0.08 z M65.28 22 l0 -0.04 l0 -0.04 l-0.04 0.04 s0 0.04 0.04 0.04 z M62.08 34.56 l-0.08 -0.04 s0 0.08 0.04 0.08 z M64.88 24.560000000000002 l-0.08 0.04 l0.04 0.04 c0.04 0 0.04 -0.04 0.04 -0.08 z M63.96 31.92 l0.04 0.04 l0 -0.04 l-0.04 0 z M61.6 33.84 l-0.04 -0.04 c0 -0.04 0.04 -0.04 0.08 -0.04 c-0.04 0.04 -0.04 0.04 -0.04 0.08 z M68.03999999999999 34.96 l0.04 0 l-0.12 0 l0.08 0 z M65.96 35.96 l0 -0.04 l0.04 0 z M63.519999999999996 25.439999999999998 l0.04 -0.04 c-0.04 0 -0.04 0 -0.04 0.04 z M64.72 25.36 l0.04 0 l-0.04 0 z M68.72 33.84 c-0.04 0.04 -0.04 0.08 -0.08 0.08 c0 -0.04 0.04 -0.04 0.08 -0.08 z M62.68 26.32 l0.08 0 l-0.08 0 z M109.64000000000001 12.399999999999999 l0.12 0.16 c0 0.4 -1.24 0.8 -1.56 1.12 c-0.52 0.64 -1.2 0.4 -1.96 0.8 c-0.08 0 -0.12 -0.2 -0.12 -0.32 c0.68 -0.48 1.2 -1.12 1.68 -1.8 c-0.04 -0.12 -0.12 -0.12 -0.24 -0.12 c-0.32 0.24 -0.76 0.32 -1.2 0.32 c-0.28 0 -1.52 -0.12 -1.52 -0.4 c0 -0.12 0.08 -0.28 0.08 -0.4 l-0.08 -0.16 c-0.36 0 -0.6 0.2 -0.88 0.2 c-0.08 0 -0.12 -0.04 -0.16 -0.04 c-0.12 0.08 -0.4 0.04 -0.4 0.16 c0.04 0.08 0.12 0.16 0.2 0.16 c0.2 0 0.4 -0.16 0.64 -0.16 c0.12 0 0.2 0 0.2 0.2 c-0.12 0.16 -0.48 0.52 -0.68 0.52 l-0.28 -0.12 c-0.12 0 -0.2 0.04 -0.32 0.08 l-0.2 -0.12 c0.12 -0.08 0.16 -0.36 0.16 -0.48 c0 -0.24 -0.08 -0.12 -0.2 -0.24 c-0.28 0.24 -0.84 0.24 -1.2 0.24 c-0.12 0 -0.32 0 -0.44 -0.08 c-0.32 0 -0.48 0.32 -0.76 0.32 c-0.08 0 -0.16 -0.12 -0.24 -0.12 c-0.36 0 -1.92 0.12 -1.92 0.4 c0.12 0.08 0.24 0.32 0.36 0.32 c0.76 0 0.28 -0.4 1.24 -0.4 c0.12 0 0.24 0.08 0.32 0.08 c0.04 0 0.12 -0.04 0.24 -0.16 c0.12 0.04 0.28 0.08 0.28 0.16 c0 0.16 -0.16 0.52 -0.4 0.52 c-0.12 0 -0.32 -0.16 -0.36 -0.2 c-0.2 0.04 -0.72 0.2 -0.88 0.28 c0 0.36 0.28 0.16 0.28 0.36 l0 0.04 l-0.04 -0.04 c-0.28 0.2 -1.76 0.52 -2.12 0.52 c-0.32 0 -0.52 0.2 -0.8 0.2 c-0.44 0 -0.8 0.12 -1.28 0.12 l-0.68 0.28 c-0.36 0.12 -1.08 0.36 -1.48 0.36 c-0.08 0 -0.16 -0.04 -0.28 -0.04 c-0.6 0 -1.92 0.68 -2.48 0.68 c-0.68 0 -0.96 0.32 -1.28 0.32 c-0.16 0 -0.16 -0.4 -0.28 -0.4 c-0.4 0 -0.6 0 -0.8 0.24 l-0.04 0 l0.12 0.16 c0.12 0 0.2 -0.2 0.48 -0.2 c0.04 0.04 0.16 0.16 0.16 0.24 s-0.04 0.12 -0.12 0.12 c-0.04 0 -0.12 0 -0.2 -0.04 c-0.32 0 -0.56 0.2 -0.76 0.2 c-0.08 0 -0.28 -0.04 -0.28 -0.12 c0 -0.28 0 -1.04 0.48 -1.04 c0.16 0 0.36 0.2 0.44 0.28 l-0.04 0 c0 -0.04 0.16 -0.08 0.2 -0.08 l0.36 -0.16 c0.28 -0.04 0.88 -0.28 1.16 -0.28 l0.04 0.04 c0.24 0 0.48 -0.24 0.84 -0.24 c0.16 0.04 0.28 0.12 0.4 0.12 c0.36 -0.28 0.72 -0.52 1.08 -0.76 c0.24 -0.16 0.88 -0.16 1.16 -0.28 c0.2 0 0.28 0.12 0.4 0.16 c0.08 0 0.12 -0.16 0.16 -0.2 c0.16 0.04 0.32 0.08 0.52 0.16 c0.12 0 0.16 -0.04 0.24 -0.12 c0.2 -0.12 1.2 -0.12 1.32 -0.24 l-0.16 -0.16 c0 -0.12 0.16 -0.12 0.2 -0.16 c0 -0.12 -0.16 -0.28 -0.24 -0.28 c-0.28 0 -0.88 0.24 -1.12 0.32 l-0.12 -0.12 l-0.12 0.04 c0 0.2 -0.88 0.08 -1.08 0.4 l-0.2 0 c-0.08 0 -0.16 0 -0.2 -0.04 c-0.24 0.12 -0.6 0.32 -0.84 0.32 c-0.04 0 -0.16 -0.04 -0.16 -0.08 c-0.04 0 -0.76 0.12 -1.16 0.28 c-0.12 0.32 -2.64 0.48 -3.68 1.04 c-1.44 0 -2.6 1.08 -3.84 1.08 c-0.12 0 -0.24 0 -0.28 -0.04 c-0.2 0 -0.28 0.12 -0.32 0.2 c-0.24 0.2 -0.56 0.16 -0.84 0.28 c0.08 0.28 0.68 0.24 0.68 0.32 l-0.2 0.08 c0.04 0.24 0.2 0.24 0.4 0.24 c0.08 0 0.16 0 0.16 -0.12 c-0.08 -0.08 -0.08 -0.2 -0.08 -0.32 c0 -0.28 2.28 -0.96 2.6 -0.96 c0.04 0.04 0.24 0.12 0.24 0.2 c0 0.2 -0.28 0.28 -0.4 0.4 c0.04 0.12 0.2 0.12 0.4 0.12 c0.16 0 0.32 -0.12 0.48 -0.28 c0 -0.08 -0.16 -0.16 -0.16 -0.28 c0.24 -0.2 0.76 -0.64 1.04 -0.64 c0.04 0 0.08 0.04 0.16 0.04 c0 0.36 -0.76 0.88 -0.8 0.96 c-0.16 0.6 -1.28 0.68 -1.84 1 c-0.12 0 -0.28 -0.08 -0.32 -0.12 c-0.08 0 -0.68 0.4 -0.92 0.48 c0.44 0.32 1.28 0.96 1.28 1.52 c0 0.4 -0.36 1.04 -0.44 1.48 c-0.08 0.04 -1.4 5.16 -1.4 5.28 l0 0.04 l0.04 -0.04 c-0.12 1.04 -0.64 2.2 -0.64 3.28 c0 0.12 0 0.28 0.08 0.36 c-0.12 1.36 -0.8 1.56 -0.8 1.84 l0 0.04 c0.12 0 0.4 0.04 0.4 0.2 c0 0.24 -0.32 0.68 -0.52 0.88 c0.04 0.24 0.2 0.52 0.2 0.8 c0 0.24 -0.24 1.16 -0.44 1.32 c0 0.12 0.08 0.28 0.16 0.36 c0 0.2 -0.44 0.32 -0.44 0.56 c0 0.08 0 0.16 0.08 0.28 l0.04 -0.04 c0.12 0 0.16 0.12 0.16 0.2 c0 0.68 -0.36 2.48 -0.52 3.2 c-0.16 0.64 -0.04 1.48 -0.2 1.96 c-0.08 0.16 -0.24 0.24 -0.24 0.4 c0 0.04 0.04 0.12 0.04 0.12 c0 0.04 -0.16 0.24 -0.16 0.28 l0.2 0.36 c-0.08 0.16 -0.12 0.36 -0.12 0.56 s0.12 0.4 0.12 0.6 c0 0.16 -0.04 0.32 -0.12 0.48 l0.08 0.12 c0 0.8 -0.64 1.24 -1.48 1.24 c-1.12 0 -1.2 -0.96 -1.2 -1.72 c0 -0.96 0.24 -1.92 0.24 -2.88 l-0.16 -0.08 c0 -0.52 0.76 -5.04 0.88 -5.12 l0 -0.08 c0 -0.44 0.2 -0.64 0.2 -0.84 c0 -1.48 2.16 -13.44 2.92 -14.12 c-0.04 -0.08 -0.04 -0.12 -0.04 -0.16 c0 -0.44 0.28 -0.8 0.28 -1.2 l-0.04 -0.12 c0.04 -0.16 0.12 -0.28 0.2 -0.44 l-0.2 -0.4 c-0.2 0 -0.2 0.16 -0.32 0.16 l-0.2 -0.08 c-0.64 0 -1.56 0.84 -2.52 0.84 c-0.08 0 -0.08 -0.04 -0.2 -0.04 c-0.32 0.36 -0.96 0.68 -1.48 0.68 c-0.16 0 -0.88 0.48 -1.28 0.52 c-0.12 0.04 -0.84 0.12 -0.84 0.16 c0 0.36 -1.08 0.6 -1.4 0.68 l0 -0.04 c-0.68 0.44 -3.04 1.12 -3.8 1.12 c-1.44 0 -4.12 -0.32 -4.12 -2.16 l0 -0.4 l0 -0.36 c0.04 -0.12 0.08 -0.24 0.32 -0.24 c1.12 0 0.88 1.28 1.32 1.52 c0.04 0 0.12 -0.04 0.12 -0.04 c0.2 0 0.4 0.04 0.6 0.04 c0.72 0 1.64 -0.24 2.24 -0.56 c0.52 -0.24 1.2 -0.12 1.64 -0.52 c0.48 -0.04 4.32 -1.36 4.44 -1.48 c2.36 -0.52 4.12 -1.6 6.32 -2.08 c1.08 -0.2 1.8 -0.72 2.8 -0.84 c0.76 -0.12 1.92 -0.92 3.16 -0.92 c0.76 0 1.32 -0.56 2.08 -0.56 c1.32 0 2.4 -0.8 3.76 -0.8 c0.08 0 0.08 0.04 0.12 0.04 c1.04 0 2.2 -0.6 2.76 -0.6 c0.64 0 4.56 -0.64 5.12 -0.84 c1.28 0 2.6 -0.28 3.84 -0.28 c3.08 0 1.96 1.16 3.4 1.28 z M97.84000000000002 12.84 l0.2 -0.12 c0 -0.12 -0.24 -0.2 -0.32 -0.28 c-0.36 0.12 -0.76 0.4 -1.16 0.4 c0 0 -0.08 -0.04 -0.12 -0.04 l-0.04 0.12 c0.16 0.2 0.4 0.2 0.4 0.44 c-0.24 0.32 -0.76 0.36 -1.16 0.44 c0.08 0.08 0.08 0.12 0.24 0.12 c0.52 0 1.04 -0.24 1.56 -0.24 c0.2 -0.2 0.2 -0.44 0.36 -0.64 l-0.16 -0.12 c0 -0.08 0.08 -0.08 0.16 -0.08 l0.04 0 z M102.60000000000001 12.32 l0 0.04 c0 0.28 -0.88 0.36 -1.08 0.4 c-0.16 -0.08 -0.24 -0.2 -0.36 -0.32 c0 -0.16 0.48 -0.2 0.6 -0.2 l0.52 0 c0.12 0 0.24 0.08 0.32 0.08 z M81.56000000000002 17.04 c0.04 -0.04 0.04 -0.12 0.04 -0.16 c-0.12 -0.12 -0.2 -0.16 -0.32 -0.16 c-0.16 0 -0.56 0.12 -0.56 0.24 c0 0.08 0.2 0.2 0.28 0.2 c0.24 0 0.36 -0.12 0.56 -0.12 z M80.48000000000002 17.2 c0 -0.08 0 -0.12 -0.08 -0.12 c-0.24 0 -0.88 0.12 -0.88 0.4 l0.08 0.08 c0.2 0 0.6 -0.36 0.88 -0.36 z M93.04000000000002 14.440000000000001 c0 -0.12 -0.04 -0.2 -0.16 -0.28 c-0.16 0.04 -0.2 0.16 -0.36 0.32 c0.04 0 0.2 0.04 0.24 0.04 c0.12 0 0.24 0 0.28 -0.08 z M79.68 18.48 c0 -0.04 0.2 -0.2 0.2 -0.28 c0 -0.04 -0.04 -0.08 -0.08 -0.12 c-0.08 0.08 -0.24 0.2 -0.24 0.28 z M79.28000000000002 17.68 l0.04 -0.08 c0 -0.08 -0.08 -0.16 -0.16 -0.16 l-0.2 0.08 c0 0.12 0.12 0.16 0.2 0.16 l0.12 0 z M79.20000000000002 34 c0.04 -0.16 0 -0.24 0.08 -0.4 l-0.08 -0.08 c-0.04 0.16 -0.12 0.32 -0.2 0.48 l0.16 0.08 z M100.32000000000001 13.120000000000001 c0.08 0.04 0.12 0.08 0.16 0.12 c-0.04 0.04 -0.16 0.12 -0.24 0.12 l-0.12 -0.08 c0.08 -0.08 0.16 -0.12 0.2 -0.16 z M104.76000000000002 12.52 c0.08 0.04 0.16 0.08 0.24 0.2 c-0.16 0 -0.28 0 -0.32 -0.16 z M105.76000000000002 11.68 l0.16 0 c0 -0.08 -0.04 -0.08 -0.16 -0.08 c-0.04 0 -0.04 0 -0.08 -0.04 z M78.48000000000002 38.36 c0 -0.04 0 -0.08 -0.04 -0.12 l-0.04 0.16 l0.04 0.08 c0 -0.04 0.04 -0.08 0.04 -0.12 z M78.28000000000002 40 l0 -0.04 l0 -0.04 l-0.04 0.04 c0 0.04 0.04 0.04 0.04 0.04 z M84.68 37.12 l-0.08 -0.28 c0.28 -0.52 0.28 -1.12 0.48 -1.68 c0.36 -0.24 0.32 -0.8 0.44 -1.16 c0.24 -0.48 0.72 -0.96 0.88 -1.44 l0 0.08 l0.2 -0.28 c0 -0.44 0.6 -0.72 0.6 -0.88 c0 -0.36 -1.08 -1.4 -1.24 -1.8 c-0.16 -0.44 -0.28 -0.96 -0.48 -1.4 c0 -0.04 0.04 -0.04 0.04 -0.08 c0 -0.24 -0.12 -0.44 -0.12 -0.68 c0 -0.64 0.64 -1.2 1.48 -1.2 c0.24 0 0.48 0.08 0.72 0.12 c0.04 0 0.08 -0.04 0.16 -0.04 c1.48 0 2.24 1.44 2.64 1.44 c0.48 0 0.92 -0.08 1.48 -0.08 c0.32 0 1 0.16 1 0.56 c0 1.2 -1.4 1.36 -1.4 1.68 c0.04 0.12 0.04 0.2 0.04 0.32 l0 0.16 c0.6 0.4 0.88 1.24 0.88 1.88 l0 0.2 l0.16 -0.16 c0.28 0 0.28 1.04 0.28 1.24 l0 0.08 c-0.56 2.84 -2.52 5.88 -5.12 5.88 c-0.64 0 -1.68 0 -2.12 -0.48 c-0.44 -0.44 -0.96 -1 -0.96 -1.64 c0 -0.12 0 -0.24 0.04 -0.36 z M90.88000000000001 32.72 l-0.08 -0.12 l-0.04 0.04 c-0.12 -0.44 -0.32 -0.88 -0.48 -1.32 l-0.28 -0.64 l-0.08 -0.08 l0.04 -0.04 c-0.16 0 -1.12 1.92 -1.44 2.2 l-0.08 -0.2 l-0.28 0.48 s-0.04 0.2 -0.08 0.2 l0 -0.04 l-0.08 0.12 l0.04 0.04 c0 0.12 -0.24 0.16 -0.32 0.28 c0 0.04 0.04 0.12 0.04 0.2 c0 0.48 -0.52 1.48 -0.84 1.96 l-0.28 0.6 c0 0.16 0.08 0.32 0.08 0.48 c0 0.36 -0.32 0.48 -0.32 0.56 l0.2 0.2 c0 0.12 -0.08 0.28 -0.16 0.36 c0 0.32 0.04 0.64 0.48 0.64 c0.24 0 1.64 -0.8 1.84 -0.96 c1.12 -1.08 2.04 -2.6 2.04 -4.08 c0 -0.24 0.28 -0.52 0.28 -0.76 c0 -0.12 -0.04 -0.24 -0.04 -0.32 c-0.04 0.04 -0.08 0.16 -0.16 0.2 z M87.32000000000001 27.119999999999997 c-0.56 0 -0.84 1.28 -0.84 1.64 c0 0.8 0.4 1.88 0.84 2.32 c0.64 -0.32 0.84 -1.6 1.12 -1.6 c0.12 -0.08 0.48 -0.64 0.48 -0.8 c0 -0.64 -1.32 -1.56 -1.6 -1.56 z M90 36.44 l0.04 0.04 l-0.12 0.08 l0.08 0.04 c0.6 0 0.72 -0.68 0.8 -0.68 l0 0.04 c0 -0.2 0.72 -0.84 0.8 -1.48 c0.04 -0.32 0.04 -0.68 0.28 -0.96 l-0.12 -0.04 c0 0.2 -0.44 0.56 -0.56 0.72 c-0.44 0.52 -0.6 1.56 -1.2 2.24 z M85.08000000000001 36.44 l0 0.24 l0.04 0.04 c0.44 -1.16 0.92 -2.8 1.64 -3.8 c-1 1.4 -1.2 2.84 -1.68 3.52 z M86.32000000000001 34.64 l0.04 0 c-0.36 0 -0.44 0.88 -0.64 1.12 l0.04 0.04 c0.2 -0.36 0.4 -0.76 0.56 -1.16 z M90.4 30.8 l0 0.08 c0 0.08 0 0.24 0.08 0.24 c0 -0.8 -0.24 -0.64 -0.28 -0.76 l-0.04 0.04 c0.04 0.16 0.12 0.32 0.24 0.4 z M90.76 31.759999999999998 c0 0 -0.04 0.08 -0.04 0.12 c0 0.16 0.08 0.28 0.12 0.44 c-0.04 0.04 -0.04 0.04 -0.04 0.08 l0.04 0 l0.16 -0.04 c-0.16 -0.36 -0.16 -0.68 -0.36 -0.92 c0 0.12 0 0.2 0.12 0.32 z M85.72000000000001 36.28 l-0.04 -0.16 c-0.16 0.12 -0.24 0.44 -0.24 0.6 l0.04 0.08 c0.04 -0.16 0.12 -0.36 0.24 -0.52 z M86.64 33.68 l0.04 0.08 c0.12 0 0.36 -0.56 0.4 -0.68 c-0.12 0.12 -0.44 0.56 -0.44 0.6 z M91.24000000000001 29.439999999999998 l0.08 -0.12 l-0.04 -0.16 c-0.08 0 -0.12 0.04 -0.12 0.12 s0 0.16 0.04 0.16 l0.04 0 z M87.56 31.84 l-0.04 -0.04 c-0.16 0.28 -0.28 0.52 -0.44 0.76 c0.28 -0.28 0.28 -0.4 0.48 -0.72 z M86.52000000000001 34.08 l0.08 -0.08 l0 -0.08 c0 0.2 -0.2 0.32 -0.28 0.48 c0.12 0 0.16 -0.24 0.2 -0.32 z M85.44000000000001 36.96 l-0.08 0.08 l0.04 0.16 c0.04 -0.08 0.04 -0.16 0.04 -0.24 z M88.24000000000001 30.8 l0.08 -0.08 l-0.08 -0.12 l0 0.2 z M87.76 31.52 l0 0.08 c0.04 -0.04 0.04 -0.12 0.12 -0.16 l-0.08 0 s-0.04 0.04 -0.04 0.08 z M87.52000000000001 32.480000000000004 l-0.04 0.08 l0.04 0.04 l0.08 -0.08 z M88.44000000000001 27.6 l-0.04 0 c0 0.04 0.08 0.12 0.12 0.12 c-0.04 -0.04 -0.08 -0.12 -0.08 -0.12 z M87.36000000000001 32.88 l0.08 -0.04 c0 -0.04 0 -0.12 -0.08 -0.12 l-0.08 0.04 z M91.84 31.72 l0.04 0.04 l0 -0.16 z M90.96000000000001 32.72 l0.04 0 l-0.04 0.12 l-0.08 -0.08 z M87.16000000000001 32.76 l0.08 -0.04 l-0.04 0 z M90.80000000000001 29.48 l0 -0.04 l0 0.12 l0 -0.08 z M88.88000000000001 28.08 c0 0.04 0 0.04 0.04 0.08 l0.04 -0.04 c0 -0.04 -0.04 -0.04 -0.08 -0.04 z M90.48 31.28 c0.08 0.04 0.08 0.04 0.12 0.04 l0 -0.04 l-0.12 0 z M90.88000000000001 32.72 c-0.04 0.04 -0.04 0.08 -0.04 0.12 l0.04 0.04 l0 -0.16 z M87.28 27.2 l0 0.04 c0 -0.04 0 -0.04 0.04 -0.04 l-0.04 0 z M99.84000000000002 34.6 l-0.04 -0.08 l0.16 -0.2 l-0.08 -0.08 l0.12 -0.04 l-0.04 -0.12 c0.04 -0.08 0.04 -0.16 0.04 -0.24 l-0.16 0.08 l0.04 0.16 l-0.04 0.08 l-0.08 -0.12 c-0.08 0.28 -0.88 1.12 -1.12 1.4 l0.04 0 c-0.32 0.28 -0.4 0.76 -0.72 1.04 c-0.6 0.64 -1.28 1.08 -2.24 1.08 c-0.64 0 -1.68 -1.24 -1.68 -1.8 c0 -0.16 0.04 -0.32 0.2 -0.4 l-0.16 0.04 c-0.04 -0.08 -0.04 -0.16 -0.04 -0.24 c0 -0.56 0.16 -1.16 0.24 -1.76 c0.08 0.24 0.08 0.48 0.08 0.72 c0.08 -1.64 1.68 -3.16 1.88 -4.64 l-0.04 -0.04 c0 -0.16 0.28 -0.32 0.32 -0.48 l-0.04 -0.04 c-0.16 0.2 -0.28 0.36 -0.4 0.52 l0.04 0.04 c-0.12 1 -0.84 0.92 -0.84 1.72 l0 0.04 c0 0.12 -0.08 0.24 -0.2 0.24 l-0.16 -0.08 l0.16 -0.2 l0.04 0.04 c0.16 -1 0.96 -1.56 1 -2.04 l0.32 -0.48 l-0.08 -0.08 c0.12 -0.04 0.2 -0.08 0.28 -0.08 c0.2 0 0.32 0.12 0.32 0.28 l0.08 -0.04 l0.16 0.16 c0 -0.08 0.08 -0.12 0.16 -0.16 c0.12 0.12 0.56 0.56 0.56 0.72 c0 0.96 -1.04 1.64 -1.04 2.56 l0.04 0.04 c-0.04 0.36 -0.24 0.76 -0.36 1.08 l0.04 -0.04 l-0.08 0.16 l0 0.04 c0 0.32 -0.16 0.92 -0.44 1.16 l0.08 0.2 c-0.16 0.16 -0.16 0.4 -0.16 0.56 l0 0.32 c0 0.24 0 0.52 0.08 0.52 c0 0 0.76 -1 1.04 -1 c0 -0.04 -0.04 -0.08 -0.04 -0.12 c0 -0.36 0.76 -0.68 0.76 -0.92 l-0.04 -0.08 l0.16 -0.2 l0.04 0.04 l-0.04 -0.04 l0.12 -0.28 l-0.08 -0.04 c0.04 -0.12 0.8 -0.72 0.8 -0.92 l-0.08 -0.04 l0.08 -0.04 l0 -0.04 c0 -0.56 0.8 -0.68 0.8 -1.52 l0.12 -0.04 l-0.04 -0.12 l0 -0.04 c1.56 -0.56 1.4 -3.68 2.8 -3.68 l0.16 0.08 l0.04 0 l0.08 0.04 l0.16 -0.04 c0.44 0 0.68 0.04 0.88 0.48 c0 0.08 -0.04 0.16 -0.08 0.2 l0.04 0.08 c-0.2 0.48 -0.64 2.92 -1.08 3 l0.08 0.08 c-0.2 0.56 -0.8 1.96 -0.8 2.56 l0 0.08 c0 0.08 0 0.24 -0.04 0.32 l0.04 0.04 c0 0.16 -0.08 0.16 -0.2 0.2 l0.04 0.24 l0 0.04 l-0.04 0.28 c-0.2 1.04 -0.32 2.16 -0.48 3.2 l0.04 0.16 l-0.08 0.08 c0 0.16 0.04 0.24 0.04 0.36 c0 0.08 0 0.16 -0.04 0.24 c0.04 0.12 0.04 0.2 0.04 0.36 l0 0.16 l0 0.04 l-0.04 0.12 c0.08 0.08 0.12 0.2 0.12 0.36 c0 0.24 -0.08 0.52 -0.08 0.68 c0 0.4 0.52 0.64 0.52 1.24 l-0.12 0.12 l0.04 0.08 l-0.16 0.08 l-0.08 0 l-0.16 0.12 l-0.16 -0.08 l-0.08 0.08 c-0.12 -0.08 -0.96 -0.32 -0.96 -0.48 l0 -0.04 c-0.56 -0.2 -0.52 -1.12 -0.6 -1.12 l-0.12 0.08 c0 -0.16 0.12 -0.32 0.24 -0.44 l-0.12 0 l-0.12 -0.04 l0 0.16 l-0.08 -0.16 l0.2 -0.16 l-0.2 0.04 l0.08 -0.08 c0 -0.16 -0.04 -0.28 -0.08 -0.44 l0.08 -0.08 l-0.08 -0.04 l0.08 -0.08 l-0.08 -0.16 l-0.08 0.04 l0.16 -0.16 c-0.04 -0.04 -0.08 -0.32 -0.08 -0.24 c0 -0.24 0.04 -0.56 0.04 -0.88 c0 -0.12 -0.04 -0.24 -0.04 -0.32 l0.2 0 c-0.08 -0.04 -0.12 -0.16 -0.12 -0.28 c0 -0.16 0.12 -0.36 0.12 -0.52 l-0.12 -0.04 c0.24 -0.4 0.24 -0.68 0.32 -1.08 l-0.04 -0.12 l0.04 -0.08 l-0.04 -0.24 c0.08 0 0.12 -0.04 0.12 -0.12 l-0.08 -0.08 l0.12 -0.16 l-0.12 -0.12 z M97.88000000000001 36.4 l-0.04 0.04 c0.04 0.04 0.08 0.04 0.12 0.04 z M99.84000000000002 35.44 l0.12 -0.04 c-0.12 0 -0.12 0 -0.12 0.04 z M103.76000000000002 27.6 l-0.04 0 l0 0.04 z M99.52000000000001 40.36 c0 0 0 0.04 0.04 0.04 l0.04 0 c0 -0.04 -0.04 -0.04 -0.08 -0.04 z M99.80000000000001 33.96 l-0.04 0.04 c0.04 0 0.04 0 0.04 -0.04 z M99.84000000000002 35.44 c0 -0.04 0 -0.04 -0.04 -0.04 c0 0.04 0 0.04 0.04 0.04 z M106.84 25.240000000000002 c0.08 -0.04 0.16 -0.16 0.16 -0.24 l-0.08 -0.08 c0.08 -0.04 0.2 -0.2 0.28 -0.2 l0.08 0.04 l0.08 -0.08 l0 -0.04 c0 0.12 0.24 0.16 0.4 0.16 l0.36 0.24 l0.08 -0.08 l0.04 0.08 l0 0.16 c0.04 0 0.12 0 0.12 0.12 l0 0.04 c-0.08 0.2 -0.08 0.36 -0.08 0.48 l0 0.32 c0 0.36 -0.24 0.72 -0.24 1.12 l0.04 0.12 c-0.64 0.84 -0.36 1.8 -0.72 2.72 c-0.04 0.08 -0.08 0.2 -0.08 0.28 c0 0.04 0 0.08 0.04 0.16 c-0.48 0.88 -0.48 1.84 -0.64 2.28 l0.04 0.08 c0.36 -0.76 0.56 -1 0.68 -1.48 l-0.04 -0.12 l0.04 0.04 c0.16 0 1.08 -2.08 1.76 -2.72 c0.4 -0.36 0.8 -0.76 1.08 -1.2 l0 0 c0.6 -0.28 1.12 -0.28 1.72 -0.48 l0 0.04 s0.08 -0.04 0.16 -0.04 c0.4 0 0.68 0.2 0.68 0.48 c0 0.56 -0.32 0.64 -0.72 0.84 l-0.08 -0.08 l-0.24 0.2 l-0.12 -0.04 l-0.08 0.2 l-0.04 0.04 l0.04 0 l-0.16 -0.08 l0 0.2 c-0.12 0 0 -0.32 -0.16 -0.32 c0 0.24 -0.44 0.48 -0.6 0.56 l0.04 0 c0 0.84 -1.16 1.56 -1.16 1.72 l0.04 0 c-0.08 0.12 -0.4 0.6 -0.4 0.76 l0 0.04 l-0.08 0.04 c-0.16 0.64 -0.6 1.04 -0.84 1.64 l0.08 0.04 c-0.44 0.28 -0.16 1.28 -0.76 1.76 l0 -0.04 c-0.12 0.28 -0.2 0.56 -0.36 0.84 l0.04 0.12 c-0.56 0.52 -0.44 1.4 -0.68 1.6 l-0.48 1.12 l0.04 -0.04 c-0.12 0.4 -0.32 0.72 -0.52 1.08 l-0.04 -0.04 c0 0.2 -0.36 0.32 -0.56 0.36 l-0.08 -0.04 c-0.2 0 -0.72 -0.24 -0.8 -0.36 l-0.12 0.04 c-0.16 -0.16 -0.32 -0.28 -0.52 -0.4 c0 -0.16 0.52 -0.72 0.56 -1.68 l-0.04 0 c-0.08 0 -0.08 -0.04 -0.08 -0.08 c0.08 0 0.12 0 0.12 0.04 c0.08 -0.08 0.08 -0.44 0.12 -0.56 l-0.04 -0.2 c0.2 -0.12 0.08 -0.6 0.16 -0.8 c0 0 -0.04 -0.08 -0.04 -0.12 c0 -0.96 0.64 -1.76 0.64 -3.08 c0.04 -0.12 0.08 -0.28 0.16 -0.36 l-0.04 -0.16 l0.08 -0.12 l0 -0.08 l0 -0.4 c0 -0.12 0 -0.28 -0.04 -0.4 c0.04 -0.08 0.4 -1.36 0.44 -1.48 c0.44 -1.6 0.96 -2.92 1.36 -4.48 z M104.92000000000002 34.36 c0 0.2 -0.12 0.36 -0.12 0.48 c0 0.04 0.08 0.12 0.12 0.12 c0 -0.32 0.12 -0.72 0.2 -1.08 l-0.04 -0.04 c-0.16 0 -0.08 0.4 -0.16 0.52 z M104.72000000000001 35.92 c0 -0.32 0.04 -0.6 0.16 -0.88 c-0.12 0 -0.16 0.08 -0.16 0.12 s0 0.12 0.04 0.12 c-0.12 0.28 -0.16 0.6 -0.16 0.88 c0 -0.08 0.04 -0.16 0.12 -0.24 z M107.68 31.32 l0.04 0.12 c0.04 -0.08 0.12 -0.2 0.12 -0.32 l-0.12 -0.04 l0.04 0.04 c-0.04 0.08 -0.04 0.16 -0.08 0.2 z M105.64000000000001 30.92 c-0.08 0 -0.12 0.2 -0.12 0.32 l0.08 0.04 c0 -0.12 0 -0.28 0.04 -0.36 z M103.88000000000001 37.6 l0.04 0.08 c0 0.12 -0.04 0.24 -0.08 0.32 l0 0 l-0.04 -0.04 c0.04 -0.12 0.08 -0.24 0.08 -0.36 z M103.84 38.2 l-0.04 0.12 l0 -0.08 c0 -0.04 0 -0.16 0.04 -0.16 l0 0.12 z M104.56000000000002 36.84 l-0.08 0.36 c0.04 -0.12 0.08 -0.24 0.08 -0.36 z M104.48 37.48 l0 -0.08 l-0.12 0.12 l0.04 0 l0.08 0 l-0.08 0 z M105.16000000000001 33.28 l0.04 -0.16 c-0.08 0.04 -0.08 0.04 -0.08 0.08 z M105.32000000000001 32.480000000000004 l0.04 0.04 c0.04 -0.08 0.04 -0.12 0.04 -0.16 z M104.04 37.24 l-0.04 0.08 l-0.12 0 z M105.2 32.72 l0.04 0.08 l0 -0.08 l-0.04 0 z M105.44000000000001 31.759999999999998 l0.04 0 l0.08 0 l-0.08 -0.12 c0 0.04 0 0.12 -0.04 0.12 z M105.64000000000001 30.8 l0 0.04 l0.08 0 c0 -0.04 -0.04 -0.04 -0.08 -0.04 z M104.36000000000001 38.04 l0 -0.04 l-0.04 0 z M105.24000000000001 32.92 l0 0.08 l0 -0.08 z M105.44000000000001 31.92 l0 -0.08 l0 0.08 z M103.84 38.44 l-0.04 -0.04 c0.04 0 0.04 0 0.04 0.04 z M107.60000000000001 31.240000000000002 c-0.04 0.04 -0.04 0.08 -0.04 0.12 c0 -0.04 0.04 -0.08 0.04 -0.12 z M112.72000000000001 27.2 c0 0.04 0 0.04 -0.04 0.08 c0 -0.04 0 -0.04 0.04 -0.08 z M112.52000000000001 28.08 l-0.04 0 l0.04 0 z M114.08000000000001 30.64 c0 0.64 0.2 1.96 0.8 2.52 c0.24 0.28 1.16 1.16 1.6 1.16 c0.2 0 7.88 -5.08 8.84 -5.76 c-0.16 0.16 -0.6 0.6 -0.68 0.8 l0.04 0 l-0.88 0.72 c0.36 -0.28 1.04 -0.76 1.08 -0.76 c-0.08 1 -7.4 5.04 -7.72 5.84 c0.24 0.28 0.68 1.08 0.8 1.4 c0.28 0.36 0.76 0.84 0.76 1.28 c0 0.16 -0.04 0.24 -0.08 0.32 l0.08 0.24 c-0.04 0.36 -0.24 0.84 -0.64 1 l0.04 0 c-0.32 0.2 -0.56 0.52 -0.76 0.84 l0.04 0 c-0.6 0.2 -1.44 1.12 -1.76 1.2 l0.04 -0.04 c-0.72 0.6 -2 1.24 -3 1.24 c-0.4 0 -0.96 -0.08 -1.2 -0.36 l0.04 0 c-0.16 -0.2 -0.48 -0.48 -0.48 -0.76 c0 -1.64 1 -1.76 1.2 -2.4 c0.08 -0.4 0.44 -0.68 0.68 -1.04 c0.32 -0.48 0.44 -0.88 0.84 -1.32 c0.32 -0.36 1.36 -1.2 1.36 -1.68 c0 -0.32 -0.52 -0.56 -0.72 -0.76 c-0.4 -0.4 -1.28 -1.92 -1.52 -1.92 l-0.04 0 c-0.08 -0.6 -0.48 -1.12 -0.48 -2.08 c0 -0.52 0.04 -1.6 0.4 -2 l-0.04 -0.12 c0.16 -1.56 0.6 -1.08 0.68 -1.6 c0.04 -0.44 1.72 -2.52 2.2 -2.52 l0.16 0.08 c1.12 0 0.68 -0.56 2.04 -0.56 c1.04 0 1.88 0.04 2.64 0.68 c0.88 0.72 0.48 1 1.04 1.56 l-0.08 0.16 l0.12 0.2 c-0.24 1.08 -0.48 2.96 -1.04 3.48 c-0.6 0.6 -1.04 0.68 -1.76 0.96 c-0.28 0 -0.88 -0.4 -0.88 -0.68 c0 -0.08 0.08 -0.16 0.12 -0.2 l-0.04 -0.08 c0.08 -0.48 0.28 -0.64 0.48 -1 l0 -0.12 c0.08 -0.6 0.64 -1.24 0.68 -1.84 l-0.04 0 c0.08 -0.2 0.12 -0.4 0.12 -0.64 c0 -0.56 -0.36 -0.8 -0.44 -1.2 l0 0 c-0.12 -0.12 -0.36 -0.48 -0.52 -0.48 c-0.24 0 -1.08 0.8 -1.4 0.96 c-0.36 0.12 -1.68 2.44 -2.16 2.88 l0.04 0.04 c-0.16 0.28 -0.6 1.72 -0.6 2.36 z M116.80000000000001 37.52 c-0.08 -0.24 -0.76 -1.48 -1 -1.48 c-0.28 0 -0.64 1.16 -1.04 1.48 l0.12 -0.04 c-0.04 0.28 -0.2 1.56 -0.72 1.56 l0.08 0.04 c-0.08 0.48 -0.2 0.12 -0.2 0.92 c0 0.12 -0.24 0.32 -0.24 0.44 c0 0.04 0.08 0.08 0.16 0.08 c0.56 -0.52 1.36 -1.04 1.84 -1.64 l-0.04 0.08 s0.88 -0.8 1.04 -1.44 z M115.32000000000002 35.28 c-0.24 0.08 -0.4 0.68 -0.44 0.88 c-0.2 0.2 -0.48 0.4 -0.72 0.56 c-0.08 0.76 -1.04 1.28 -1.04 2.08 l0.08 0.16 c0.36 -0.04 0.96 -1.48 1.04 -1.48 l0 0.04 c0.28 -1.24 1.16 -0.88 1.32 -1.6 c-0.12 -0.2 0 -0.48 -0.24 -0.64 z M113.88000000000002 41.52 l0.12 0.04 l1.04 -0.72 l0 0.04 c0.12 -0.2 0.36 -0.12 0.52 -0.44 l-0.04 -0.04 c-0.36 0 -1.36 0.88 -1.64 1.12 z M113.48000000000002 41 l0.12 0.04 c0.12 0 0.2 -0.16 0.2 -0.24 c-0.16 0 -0.24 0.04 -0.32 0.2 z M118.12000000000002 33.76 c0.4 -0.24 0.76 -0.44 1.16 -0.68 c-0.4 0.24 -0.76 0.44 -1.16 0.68 z M113.88000000000002 41.52 c-0.04 0 -0.08 0 -0.12 0.04 c0.04 0 0.08 0 0.12 -0.04 z M115.80000000000001 38.88 l0.08 -0.08 c0 0.04 -0.04 0.08 -0.08 0.08 z"></path></g><g id="SvgjsG1009" featurekey="sloganFeature-0" transform="matrix(0.3860870776061291,0,0,0.3860870776061291,29.29496625267448,182.80190967619706)" fill="#fff"><path d="M7.6953 5.888999999999999 c2.7637 0 4.4824 2.0508 4.4824 4.5605 c0 2.5684 -1.7188 4.4922 -4.4824 4.4922 l-2.9395 0 l0 5.0586 l-2.9297 0 l0 -14.111 l5.8691 0 z M7.207 12.4902 c1.4648 0 2.1484 -0.81055 2.1484 -2.0801 c0 -1.2207 -0.68359 -2.0703 -2.1484 -2.0703 l-2.4512 0 l0 4.1504 l2.4512 0 z M24.9755421875 20 l-3.6719 -6.2109 l-0.84961 0 l0 6.2109 l-2.9297 0 l0 -14.111 l5.1172 0 c3.1934 0 4.541 1.8848 4.541 4.2188 c0 1.8945 -1.0742 3.125 -2.9883 3.5352 l4.248 6.3574 l-3.4668 0 z M20.4541421875 8.32 l0 3.3691 l1.7285 0 c1.5625 0 2.1973 -0.66406 2.1973 -1.6797 c0 -1.0059 -0.63477 -1.6895 -2.1973 -1.6895 l-1.7285 0 z M39.726590625 20.19531 c-4.1504 0 -7.2168 -2.832 -7.2168 -7.2559 c0 -4.4336 3.0664 -7.2461 7.2168 -7.2461 c4.1406 0 7.207 2.8125 7.207 7.2461 c0 4.4238 -3.0664 7.2559 -7.207 7.2559 z M39.726590625 17.5098 c2.4316 0 4.2969 -1.709 4.2969 -4.5703 c0 -2.8516 -1.8652 -4.5508 -4.2969 -4.5508 s-4.2969 1.6992 -4.2969 4.5508 c0 2.8613 1.8652 4.5703 4.2969 4.5703 z M61.4894765625 5.888999999999999 l3.1152 0 l-5.2148 14.111 l-3.2227 0 l-5.1855 -14.111 l3.1055 0 l3.7012 10.693 z M69.609403125 20 l0 -14.111 l2.9297 0 l0 14.111 l-2.9297 0 z M79.0674109375 20 l0 -14.111 l5.1074 0 c4.502 0 6.7285 2.832 6.7285 7.0508 c0 4.2285 -2.2266 7.0605 -6.7285 7.0605 l-5.1074 0 z M81.9971109375 17.4121 l2.0313 0 c2.5977 0 3.7891 -1.6211 3.7891 -4.4727 s-1.1914 -4.4727 -3.7891 -4.4727 l-2.0313 0 l0 8.9453 z M104.71703125 8.467 l-5.2344 0 l0 3.2031 l4.6387 0 l0 2.5488 l-4.6387 0 l0 3.1934 l5.2344 0 l0 2.5879 l-8.1836 0 l0 -14.111 l8.1836 0 l0 2.5781 z M127.598 5.888999999999999 l2.9297 0 l0 14.111 l-2.9297 0 l0 -5.8008 l-5.9668 0 l0 5.8008 l-2.9297 0 l0 -14.111 l2.9297 0 l0 5.7617 l5.9668 0 l0 -5.7617 z M146.5092578125 20 l-1.0254 -2.9102 l-5.9277 0 l-1.0254 2.9102 l-2.998 0 l5.1953 -14.111 l3.584 0 l5.1953 14.111 l-2.998 0 z M140.4150578125 14.6387 l4.209 0 l-2.0996 -5.9863 z M159.199246875 20.19531 c-3.0273 0 -5.3906 -1.4551 -5.8203 -4.1016 l3.0273 -0.69336 c0.19531 1.582 1.3574 2.4023 2.9102 2.4023 c1.1914 0 2.1387 -0.52734 2.1289 -1.7188 c-0.0097656 -1.3281 -1.5723 -1.748 -3.291 -2.2754 c-2.0703 -0.64453 -4.2871 -1.4063 -4.2871 -4.0039 c0 -2.627 2.1484 -4.1113 4.9805 -4.1113 c2.4805 0 4.9805 1.0059 5.5469 3.7109 l-2.832 0.70313 c-0.26367 -1.4063 -1.2109 -2.0215 -2.5391 -2.0215 c-1.1816 0 -2.1875 0.48828 -2.1875 1.6504 c0 1.084 1.3867 1.4453 2.9883 1.9238 c2.1289 0.64453 4.6484 1.4648 4.6484 4.2773 c0 2.998 -2.5098 4.2578 -5.2734 4.2578 z M174.7510046875 20.19531 c-3.0273 0 -5.3906 -1.4551 -5.8203 -4.1016 l3.0273 -0.69336 c0.19531 1.582 1.3574 2.4023 2.9102 2.4023 c1.1914 0 2.1387 -0.52734 2.1289 -1.7188 c-0.0097656 -1.3281 -1.5723 -1.748 -3.291 -2.2754 c-2.0703 -0.64453 -4.2871 -1.4063 -4.2871 -4.0039 c0 -2.627 2.1484 -4.1113 4.9805 -4.1113 c2.4805 0 4.9805 1.0059 5.5469 3.7109 l-2.832 0.70313 c-0.26367 -1.4063 -1.2109 -2.0215 -2.5391 -2.0215 c-1.1816 0 -2.1875 0.48828 -2.1875 1.6504 c0 1.084 1.3867 1.4453 2.9883 1.9238 c2.1289 0.64453 4.6484 1.4648 4.6484 4.2773 c0 2.998 -2.5098 4.2578 -5.2734 4.2578 z M188.5449625 17.4121 l4.4238 0 l0 2.5879 l-7.3535 0 l0 -14.111 l2.9297 0 l0 11.523 z M206.2746484375 8.467 l-5.2344 0 l0 3.2031 l4.6387 0 l0 2.5488 l-4.6387 0 l0 3.1934 l5.2344 0 l0 2.5879 l-8.1836 0 l0 -14.111 l8.1836 0 l0 2.5781 z M211.7773625 15.976600000000001 l0 -2.3535 l7.002 0 l0 2.3535 l-7.002 0 z M233.23682031250002 8.467 l-5.3711 0 l0 3.2031 l4.6387 0 l0 2.5488 l-4.6387 0 l0 5.7813 l-2.9492 0 l0 -14.111 l8.3203 0 l0 2.5781 z M246.074175 20 l-3.6719 -6.2109 l-0.84961 0 l0 6.2109 l-2.9297 0 l0 -14.111 l5.1172 0 c3.1934 0 4.541 1.8848 4.541 4.2188 c0 1.8945 -1.0742 3.125 -2.9883 3.5352 l4.248 6.3574 l-3.4668 0 z M241.552775 8.32 l0 3.3691 l1.7285 0 c1.5625 0 2.1973 -0.66406 2.1973 -1.6797 c0 -1.0059 -0.63477 -1.6895 -2.1973 -1.6895 l-1.7285 0 z M262.7590234375 8.467 l-5.2344 0 l0 3.2031 l4.6387 0 l0 2.5488 l-4.6387 0 l0 3.1934 l5.2344 0 l0 2.5879 l-8.1836 0 l0 -14.111 l8.1836 0 l0 2.5781 z M276.8459375 8.467 l-5.2344 0 l0 3.2031 l4.6387 0 l0 2.5488 l-4.6387 0 l0 3.1934 l5.2344 0 l0 2.5879 l-8.1836 0 l0 -14.111 l8.1836 0 l0 2.5781 z M299.01390625 5.888999999999999 l0 2.5781 l-3.3496 0 l0 11.533 l-2.9004 0 l0 -11.533 l-3.3691 0 l0 -2.5781 l9.6191 0 z M311.5673390625 20 l-3.6719 -6.2109 l-0.84961 0 l0 6.2109 l-2.9297 0 l0 -14.111 l5.1172 0 c3.1934 0 4.541 1.8848 4.541 4.2188 c0 1.8945 -1.0742 3.125 -2.9883 3.5352 l4.248 6.3574 l-3.4668 0 z M307.0459390625 8.32 l0 3.3691 l1.7285 0 c1.5625 0 2.1973 -0.66406 2.1973 -1.6797 c0 -1.0059 -0.63477 -1.6895 -2.1973 -1.6895 l-1.7285 0 z M329.5121875 20 l-1.0254 -2.9102 l-5.9277 0 l-1.0254 2.9102 l-2.998 0 l5.1953 -14.111 l3.584 0 l5.1953 14.111 l-2.998 0 z M323.4179875 14.6387 l4.209 0 l-2.0996 -5.9863 z M346.4894765625 5.888999999999999 l3.1152 0 l-5.2148 14.111 l-3.2227 0 l-5.1855 -14.111 l3.1055 0 l3.7012 10.693 z M362.793203125 8.467 l-5.2344 0 l0 3.2031 l4.6387 0 l0 2.5488 l-4.6387 0 l0 3.1934 l5.2344 0 l0 2.5879 l-8.1836 0 l0 -14.111 l8.1836 0 l0 2.5781 z M371.6260171875 17.4121 l4.4238 0 l0 2.5879 l-7.3535 0 l0 -14.111 l2.9297 0 l0 11.523 z M398.6967578125 20 l-1.0254 -2.9102 l-5.9277 0 l-1.0254 2.9102 l-2.998 0 l5.1953 -14.111 l3.584 0 l5.1953 14.111 l-2.998 0 z M392.6025578125 14.6387 l4.209 0 l-2.0996 -5.9863 z M414.150346875 20 l-3.6719 -6.2109 l-0.84961 0 l0 6.2109 l-2.9297 0 l0 -14.111 l5.1172 0 c3.1934 0 4.541 1.8848 4.541 4.2188 c0 1.8945 -1.0742 3.125 -2.9883 3.5352 l4.248 6.3574 l-3.4668 0 z M409.628946875 8.32 l0 3.3691 l1.7285 0 c1.5625 0 2.1973 -0.66406 2.1973 -1.6797 c0 -1.0059 -0.63477 -1.6895 -2.1973 -1.6895 l-1.7285 0 z M430.1024953125 20 l-3.6719 -6.2109 l-0.84961 0 l0 6.2109 l-2.9297 0 l0 -14.111 l5.1172 0 c3.1934 0 4.541 1.8848 4.541 4.2188 c0 1.8945 -1.0742 3.125 -2.9883 3.5352 l4.248 6.3574 l-3.4668 0 z M425.5810953125 8.32 l0 3.3691 l1.7285 0 c1.5625 0 2.1973 -0.66406 2.1973 -1.6797 c0 -1.0059 -0.63477 -1.6895 -2.1973 -1.6895 l-1.7285 0 z M448.04734375 20 l-1.0254 -2.9102 l-5.9277 0 l-1.0254 2.9102 l-2.998 0 l5.1953 -14.111 l3.584 0 l5.1953 14.111 l-2.998 0 z M441.95314375 14.6387 l4.209 0 l-2.0996 -5.9863 z M465.6886328125 5.888999999999999 l2.9199 0 l0 14.111 l-3.3887 0 l-6.25 -10.088 l0 10.088 l-2.9199 0 l0 -14.111 l3.3496 0 l6.2891 10.029 l0 -10.029 z M481.2500125 20.19531 c-4.0723 0 -7.0703 -2.8125 -7.0703 -7.2168 c0 -4.4629 3.0664 -7.2852 7.2168 -7.2852 c2.7246 0 4.9805 1.2012 6.2109 3.3203 l-2.5684 1.3672 c-0.74219 -1.4453 -2.0703 -2.1387 -3.6426 -2.1387 c-2.4414 0 -4.2773 1.6797 -4.2773 4.668 c0 2.8809 1.7188 4.7363 4.3848 4.7363 c1.8066 0 3.4668 -0.89844 3.8672 -2.959 l-3.8574 0 l0 -2.3535 l6.6309 0 l0 7.666 l-2.3047 0 l0 -1.9531 c-0.9082 1.3379 -2.4316 2.1484 -4.5898 2.1484 z M502.2512109375 8.467 l-5.2344 0 l0 3.2031 l4.6387 0 l0 2.5488 l-4.6387 0 l0 3.1934 l5.2344 0 l0 2.5879 l-8.1836 0 l0 -14.111 l8.1836 0 l0 2.5781 z M524.326125 20 l-2.9199 0 l-0.92773 -10.635 l-3.5742 10.635 l-1.8945 0 l-3.5742 -10.635 l-0.9375 10.635 l-2.9297 0 l1.1816 -14.111 l4.1797 0 l3.0078 8.8574 l3.0469 -8.8574 l4.1797 0 z M538.4621484375 8.467 l-5.2344 0 l0 3.2031 l4.6387 0 l0 2.5488 l-4.6387 0 l0 3.1934 l5.2344 0 l0 2.5879 l-8.1836 0 l0 -14.111 l8.1836 0 l0 2.5781 z M554.0040625 5.888999999999999 l2.9199 0 l0 14.111 l-3.3887 0 l-6.25 -10.088 l0 10.088 l-2.9199 0 l0 -14.111 l3.3496 0 l6.2891 10.029 l0 -10.029 z M571.6457421875 5.888999999999999 l0 2.5781 l-3.3496 0 l0 11.533 l-2.9004 0 l0 -11.533 l-3.3691 0 l0 -2.5781 l9.6191 0 z"></path></g></svg>